<?xml version="1.0" standalone="no"?>
<!DOCTYPE svg PUBLIC "-//W3C//DTD SVG 20010904//EN"
 "http://www.w3.org/TR/2001/REC-SVG-20010904/DTD/svg10.dtd">
<svg version="1.0" xmlns="http://www.w3.org/2000/svg"
 width="2194.000000pt" height="1314.000000pt" viewBox="0 0 2194.000000 1314.000000"
 preserveAspectRatio="xMidYMid meet">

<g transform="translate(0.000000,1314.000000) scale(0.100000,-0.100000)"
fill="#000000" stroke="none">
<path d="M1230 12610 l0 -420 10210 0 10210 0 0 420 0 420 -10210 0 -10210 0
0 -420z m20390 0 l0 -390 -10180 0 -10180 0 0 390 0 390 10180 0 10180 0 0
-390z"/>
<path d="M8297 12813 c-16 -15 -4 -30 39 -51 25 -12 50 -20 55 -17 20 13 7 34
-34 54 -48 23 -51 24 -60 14z"/>
<path d="M11465 12755 c-37 -38 -84 -72 -120 -90 -74 -36 -70 -32 -55 -50 18
-22 37 -19 91 15 l49 30 0 -100 c0 -93 1 -100 20 -100 19 0 20 7 20 114 l0
114 55 50 54 50 -24 16 c-13 9 -26 15 -27 14 -2 -1 -30 -29 -63 -63z"/>
<path d="M14055 12755 c-37 -38 -84 -72 -120 -90 -74 -36 -70 -32 -55 -50 18
-22 37 -19 91 15 l49 30 0 -100 c0 -93 1 -100 20 -100 19 0 20 7 20 114 l0
114 55 50 54 50 -24 16 c-13 9 -26 15 -27 14 -2 -1 -30 -29 -63 -63z"/>
<path d="M9671 12788 c-4 -13 -25 -71 -45 -130 l-38 -108 -35 0 c-33 0 -35 -1
-28 -27 4 -16 7 -28 8 -29 1 -1 40 4 87 11 200 29 199 29 206 1 6 -27 19 -32
43 -17 13 8 12 16 -4 52 -22 48 -71 119 -83 119 -4 0 -13 -4 -21 -9 -11 -7
-10 -15 9 -41 28 -39 17 -50 -50 -50 -25 0 -55 -3 -68 -6 -21 -6 -20 -1 23
101 25 59 50 114 56 121 9 11 5 16 -16 24 -35 13 -34 13 -44 -12z"/>
<path d="M12247 12766 c-10 -25 -39 -64 -64 -87 -34 -32 -42 -43 -32 -50 8 -5
20 -9 27 -9 13 0 82 69 82 83 0 4 27 7 60 7 65 0 67 -3 45 -56 l-14 -35 -40
20 c-34 18 -41 19 -51 5 -15 -17 -15 -16 28 -38 17 -9 32 -21 32 -26 0 -16
-74 -70 -112 -82 -32 -9 -36 -14 -27 -29 5 -11 16 -19 25 -19 26 0 88 37 125
74 32 32 38 35 49 21 10 -12 16 -13 26 -4 18 15 18 36 -1 46 -12 7 -11 17 9
66 13 32 26 60 29 64 4 3 2 12 -4 20 -9 10 -29 11 -80 7 -38 -4 -69 -4 -69 -1
0 3 8 13 17 23 16 15 16 17 -2 30 -30 22 -39 17 -58 -30z"/>
<path d="M9160 12780 c0 -19 7 -20 110 -20 103 0 110 1 110 20 0 19 -7 20
-110 20 -103 0 -110 -1 -110 -20z"/>
<path d="M11729 12790 c-1 -5 -2 -14 -3 -19 -1 -5 18 -23 40 -39 31 -23 45
-27 53 -19 20 20 12 36 -29 62 -43 27 -59 31 -61 15z"/>
<path d="M11000 12646 c0 -171 5 -182 67 -137 45 32 113 109 113 127 0 6 -6
17 -14 23 -10 9 -19 3 -39 -28 -14 -21 -40 -49 -58 -61 l-31 -23 3 122 c4 120
4 121 -18 121 -23 0 -23 -1 -23 -144z"/>
<path d="M8818 12773 c-78 -3 -98 -7 -98 -18 0 -12 18 -15 90 -15 l90 0 -21
-41 c-31 -62 -95 -126 -156 -155 -54 -27 -54 -27 -35 -47 20 -20 20 -20 64 6
24 14 56 39 72 56 17 17 35 31 42 31 7 0 34 -25 62 -55 49 -53 50 -54 68 -34
17 19 16 21 -43 77 l-60 58 39 58 c30 46 36 61 27 72 -6 8 -19 13 -28 12 -9
-1 -60 -4 -113 -5z"/>
<path d="M10890 12716 c0 -95 -9 -125 -51 -167 -37 -37 -37 -38 -18 -55 18
-17 20 -16 45 7 42 39 65 95 71 172 3 40 10 77 14 83 12 15 0 24 -33 24 -28 0
-28 0 -28 -64z"/>
<path d="M13128 12773 c-104 -3 -118 -6 -118 -21 0 -15 12 -17 121 -14 l121 3
-6 -28 c-21 -87 -81 -159 -157 -189 -44 -18 -48 -28 -19 -44 26 -14 70 8 128
64 49 46 65 74 93 155 18 53 19 57 2 68 -9 7 -24 12 -32 11 -9 -1 -69 -4 -133
-5z"/>
<path d="M14448 12773 c-78 -3 -98 -7 -98 -18 0 -12 18 -15 90 -15 l90 0 -21
-41 c-31 -62 -95 -126 -156 -155 -54 -27 -54 -27 -35 -47 20 -20 20 -20 64 6
24 14 56 39 72 56 17 17 35 31 42 31 7 0 34 -25 62 -55 49 -53 50 -54 68 -34
17 19 16 21 -43 77 l-60 58 39 58 c30 46 36 61 27 72 -6 8 -19 13 -28 12 -9
-1 -60 -4 -113 -5z"/>
<path d="M9990 12740 c0 -19 7 -20 120 -20 l120 0 0 -80 0 -80 -121 0 c-118 0
-120 0 -117 -22 3 -21 6 -22 121 -19 78 2 117 -1 117 -8 0 -6 9 -11 20 -11 19
0 20 7 20 130 l0 130 -140 0 c-133 0 -140 -1 -140 -20z"/>
<path d="M8251 12707 c-18 -18 -13 -25 36 -47 47 -21 71 -16 60 12 -8 21 -83
48 -96 35z"/>
<path d="M8460 12629 c-51 -52 -94 -85 -137 -105 l-61 -30 17 -23 18 -24 74
48 c66 43 189 156 189 174 0 4 -6 14 -12 22 -11 12 -24 3 -88 -62z"/>
<path d="M11965 12660 c-41 -42 -143 -100 -212 -121 -24 -7 -43 -14 -43 -16 0
-4 20 -45 25 -51 2 -2 44 18 94 44 107 55 206 140 196 167 -10 24 -16 22 -60
-23z"/>
<path d="M9100 12670 c0 -18 7 -20 80 -20 91 0 94 -3 61 -77 -19 -41 -61 -73
-97 -73 -16 0 -16 -2 1 -20 23 -26 41 -25 82 3 39 26 73 89 73 135 l0 32 70 0
c63 0 70 2 70 20 0 19 -7 20 -170 20 -163 0 -170 -1 -170 -20z"/>
<path d="M13490 12655 c0 -11 12 -15 45 -15 l45 0 0 -75 0 -75 -60 0 c-47 0
-60 -3 -60 -15 0 -13 22 -15 140 -15 118 0 140 2 140 15 0 12 -13 15 -60 15
l-60 0 0 75 0 75 45 0 c33 0 45 4 45 15 0 12 -19 15 -110 15 -91 0 -110 -3
-110 -15z"/>
<path d="M10410 12630 l0 -25 160 0 160 0 0 25 0 25 -160 0 -160 0 0 -25z"/>
<path d="M12580 12630 l0 -25 160 0 160 0 0 25 0 25 -160 0 -160 0 0 -25z"/>
<path d="M9529 11530 c-42 -12 -77 -40 -101 -79 l-23 -36 -5 -1038 -5 -1038
-380 -205 c-209 -112 -383 -204 -388 -204 -4 0 -17 20 -29 45 -12 25 -25 44
-28 43 -4 -2 -38 -39 -77 -83 -76 -86 -204 -212 -293 -287 l-55 -47 93 29
c116 36 258 66 387 81 55 6 102 13 103 14 2 2 -9 25 -24 51 -15 26 -24 49 -19
51 6 2 168 88 360 192 l350 188 5 -621 c5 -668 4 -650 57 -698 54 -49 30 -48
988 -48 l895 0 0 -305 0 -304 -32 -5 c-18 -3 -69 -10 -113 -17 -44 -6 -119
-24 -166 -39 -388 -127 -678 -436 -786 -837 -25 -90 -27 -114 -27 -288 0 -174
2 -198 27 -288 72 -268 218 -487 440 -658 554 -428 1374 -262 1732 351 179
308 210 702 79 1024 -19 46 -21 62 -12 68 40 26 2899 1658 2905 1658 5 0 20
-20 34 -45 l25 -46 83 101 c46 55 138 152 204 216 105 100 116 114 82 99 -64
-26 -290 -82 -415 -101 -63 -10 -117 -19 -118 -20 -2 -1 8 -23 23 -49 15 -25
26 -47 24 -49 -2 -2 -658 -377 -1458 -835 l-1453 -831 -60 85 c-69 97 -205
232 -295 293 -159 108 -414 202 -548 202 -69 0 -65 -20 -65 316 l0 304 895 0
c738 0 901 2 928 14 39 16 82 61 96 99 8 20 11 553 11 1735 0 1635 -1 1709
-19 1747 -10 22 -28 48 -39 58 -53 48 19 46 -1932 46 -1009 -1 -1847 -4 -1861
-9z m3766 -61 c20 -18 39 -47 45 -69 7 -25 9 -598 8 -1731 -3 -1640 -4 -1695
-22 -1725 -10 -17 -33 -40 -50 -50 -30 -18 -69 -19 -928 -22 l-898 -2 0 145 0
145 55 0 55 0 -21 53 c-61 152 -139 420 -139 480 0 48 -17 29 -23 -25 -8 -75
-68 -286 -115 -403 l-39 -100 58 -3 59 -3 0 -145 0 -144 -904 2 c-896 3 -905
3 -932 24 -15 11 -37 33 -48 48 -21 27 -21 29 -24 1699 -2 920 0 1697 4 1727
5 45 12 61 44 92 l38 38 1870 0 1871 0 36 -31z m-1895 -4389 c6 0 10 25 10 56
l0 57 88 -6 c115 -8 259 -46 371 -98 50 -23 91 -45 91 -48 0 -3 -12 -24 -25
-46 -26 -42 -30 -55 -17 -55 4 0 18 20 32 45 14 25 27 45 31 45 18 0 165 -114
229 -180 69 -70 179 -215 169 -224 -2 -2 -23 -15 -46 -30 -62 -38 -53 -52 11
-16 l53 30 35 -77 c62 -135 108 -323 108 -440 l0 -43 -62 -2 -63 -2 63 -3 62
-4 0 -42 c0 -72 -29 -227 -60 -319 -24 -71 -72 -181 -85 -196 -2 -2 -20 7 -42
20 -61 39 -63 40 -63 29 0 -6 19 -23 43 -37 23 -15 44 -28 46 -30 10 -9 -100
-154 -169 -224 -64 -66 -211 -180 -229 -180 -4 0 -17 20 -31 45 -14 25 -28 45
-32 45 -13 0 -9 -13 17 -55 13 -22 25 -43 25 -46 0 -3 -40 -25 -89 -48 -112
-52 -248 -88 -368 -99 l-93 -8 0 58 c0 32 -4 58 -10 58 -6 0 -10 -27 -10 -60
l0 -60 -37 5 c-21 2 -67 7 -102 10 -98 10 -241 49 -336 94 l-87 40 28 51 c28
52 28 82 0 36 -9 -14 -23 -37 -31 -51 l-16 -25 -59 40 c-130 88 -258 220 -331
338 l-18 31 49 28 c28 15 50 31 50 36 0 12 -11 8 -57 -19 -56 -32 -61 -28
-108 84 -54 130 -94 304 -95 415 l0 37 63 2 62 2 -62 3 -63 4 0 37 c1 110 41
287 95 413 49 114 51 116 109 83 26 -14 50 -24 53 -20 8 7 9 6 -50 40 l-47 27
52 77 c29 42 85 109 125 149 74 73 205 173 229 173 8 0 23 -18 34 -39 20 -39
40 -61 40 -43 0 5 -12 30 -26 56 l-26 46 86 41 c109 51 253 88 376 97 l95 7 3
-57 c2 -32 7 -58 12 -58z"/>
<path d="M10524 11066 c-12 -31 0 -51 30 -51 36 0 56 26 37 49 -17 20 -60 21
-67 2z m46 -21 c0 -8 -7 -15 -15 -15 -8 0 -15 7 -15 15 0 8 7 15 15 15 8 0 15
-7 15 -15z"/>
<path d="M11838 11036 c-16 -19 -28 -40 -28 -45 0 -17 21 -13 36 7 12 16 14
16 36 -6 25 -23 41 -21 31 4 -4 10 3 14 26 14 17 0 31 5 31 10 0 6 -20 10 -45
10 -25 0 -45 5 -45 10 0 6 5 10 11 10 5 0 7 5 4 10 -11 18 -30 10 -57 -24z"/>
<path d="M11990 11028 c-16 -23 -30 -48 -30 -55 0 -10 -20 -13 -75 -13 l-75 0
0 -40 c0 -29 4 -40 15 -40 10 0 15 10 15 30 l0 30 135 0 135 0 0 -30 c0 -20 5
-30 15 -30 11 0 15 11 15 40 l0 40 -74 0 c-70 0 -74 1 -69 21 8 30 32 35 49
11 16 -23 46 -19 37 4 -4 10 3 14 26 14 17 0 31 5 31 10 0 6 -26 10 -57 11
-32 0 -52 3 -45 6 16 6 15 20 -3 26 -9 4 -25 -9 -45 -35z"/>
<path d="M11140 11001 l0 -49 -45 -6 c-31 -5 -45 -12 -45 -23 0 -13 8 -15 45
-10 l45 7 0 -64 c0 -88 10 -96 111 -96 70 0 79 2 79 18 0 16 -9 18 -72 18
l-73 -1 -3 61 c-3 57 -1 62 20 68 31 8 88 8 88 -1 0 -3 -12 -21 -26 -40 -27
-35 -27 -50 1 -40 19 8 77 97 72 112 -4 10 -103 9 -139 -1 -16 -5 -18 2 -18
45 0 44 -3 51 -20 51 -17 0 -20 -7 -20 -49z"/>
<path d="M12200 11035 c0 -9 9 -15 25 -15 23 0 25 -4 25 -40 0 -36 -2 -40 -25
-40 -16 0 -25 -6 -25 -15 0 -9 9 -15 25 -15 23 0 25 -4 25 -44 0 -39 -3 -45
-30 -56 -28 -12 -38 -29 -24 -42 9 -10 144 55 144 69 0 16 -15 17 -41 3 -17
-10 -19 -7 -19 30 0 36 2 40 25 40 16 0 25 6 25 15 0 9 -9 15 -25 15 -22 0
-25 4 -25 40 0 36 3 40 25 40 16 0 25 6 25 15 0 12 -14 15 -65 15 -51 0 -65
-3 -65 -15z"/>
<path d="M12350 10971 l0 -80 37 -3 c27 -2 39 -8 41 -20 3 -15 -4 -18 -37 -18
-30 0 -41 -4 -41 -15 0 -11 11 -15 40 -15 38 0 40 -2 40 -30 0 -30 -1 -30 -55
-30 -42 0 -55 -3 -55 -15 0 -12 19 -15 115 -15 96 0 115 3 115 15 0 11 -12 15
-45 15 -43 0 -45 1 -45 30 0 28 3 30 35 30 24 0 35 5 35 15 0 10 -11 15 -35
15 -28 0 -35 4 -35 20 0 16 7 20 35 20 l35 0 0 80 0 80 -90 0 -90 0 0 -79z
m78 37 c-2 -15 -11 -24 -25 -26 -19 -3 -23 1 -23 22 0 21 5 26 26 26 21 0 25
-4 22 -22z m72 -3 c0 -18 -5 -25 -20 -25 -15 0 -20 7 -20 25 0 18 5 25 20 25
15 0 20 -7 20 -25z m-70 -70 c0 -20 -5 -25 -25 -25 -20 0 -25 5 -25 25 0 20 5
25 25 25 20 0 25 -5 25 -25z m70 0 c0 -18 -5 -25 -20 -25 -15 0 -20 7 -20 25
0 18 5 25 20 25 15 0 20 -7 20 -25z"/>
<path d="M11578 11032 c-78 -2 -98 -6 -98 -17 0 -12 16 -15 80 -15 92 0 96 -5
52 -66 -38 -51 -97 -103 -140 -121 -32 -13 -33 -16 -19 -30 14 -14 19 -13 59
10 24 14 54 37 67 51 30 31 47 24 92 -39 29 -41 34 -44 48 -30 14 13 10 21
-37 68 l-53 53 28 50 c15 27 32 52 37 56 7 5 6 12 -4 20 -11 9 -44 12 -112 10z"/>
<path d="M10383 11023 c-91 -3 -113 -6 -113 -18 0 -12 19 -15 105 -15 119 0
120 -1 86 -75 -23 -52 -70 -99 -121 -121 -31 -14 -37 -21 -29 -31 17 -19 31
-16 84 19 53 35 96 95 121 170 12 39 13 52 4 63 -7 8 -15 14 -19 13 -3 -1 -57
-4 -118 -5z"/>
<path d="M10670 10890 c0 -109 2 -130 15 -130 8 0 15 7 15 15 0 12 18 15 100
15 82 0 100 -3 100 -15 0 -8 7 -15 15 -15 13 0 15 21 15 130 l0 130 -130 0
-130 0 0 -130z m230 15 l0 -85 -100 0 -100 0 0 85 0 85 100 0 100 0 0 -85z"/>
<path d="M11870 10828 l0 -93 110 0 110 0 0 43 0 42 -95 0 c-57 0 -95 4 -95
10 0 6 35 10 85 10 l85 0 0 40 0 40 -100 0 -100 0 0 -92z m170 52 c0 -18 -7
-20 -70 -20 -63 0 -70 2 -70 20 0 18 7 20 70 20 63 0 70 -2 70 -20z m20 -100
c0 -18 -7 -20 -80 -20 -73 0 -80 2 -80 20 0 18 7 20 80 20 73 0 80 -2 80 -20z"/>
<path d="M11838 10556 c-16 -19 -28 -40 -28 -45 0 -17 21 -13 36 7 12 16 14
16 36 -6 25 -23 41 -21 31 4 -4 10 3 14 26 14 17 0 31 5 31 10 0 6 -20 10 -45
10 -25 0 -45 5 -45 10 0 6 5 10 11 10 5 0 7 5 4 10 -11 18 -30 10 -57 -24z"/>
<path d="M11990 10548 c-16 -23 -30 -48 -30 -55 0 -10 -20 -13 -75 -13 l-75 0
0 -40 c0 -29 4 -40 15 -40 10 0 15 10 15 30 l0 30 135 0 135 0 0 -30 c0 -20 5
-30 15 -30 11 0 15 11 15 40 l0 40 -74 0 c-70 0 -74 1 -69 21 8 30 32 35 49
11 16 -23 46 -19 37 4 -4 10 3 14 26 14 17 0 31 5 31 10 0 6 -26 10 -57 11
-32 0 -52 3 -45 6 16 6 15 20 -3 26 -9 4 -25 -9 -45 -35z"/>
<path d="M11697 10573 c-9 -9 22 -43 40 -43 18 0 16 14 -5 33 -21 19 -26 20
-35 10z"/>
<path d="M11540 10415 c0 -131 2 -155 15 -155 12 0 15 16 15 85 0 47 3 85 8
85 4 0 31 -16 61 -36 41 -28 55 -33 62 -23 4 7 4 18 -1 24 -18 21 -110 66
-121 59 -8 -5 -10 10 -7 55 4 54 2 61 -14 61 -17 0 -18 -12 -18 -155z"/>
<path d="M12200 10555 c0 -9 9 -15 25 -15 23 0 25 -4 25 -40 0 -36 -2 -40 -25
-40 -16 0 -25 -6 -25 -15 0 -9 9 -15 25 -15 23 0 25 -4 25 -44 0 -39 -3 -45
-30 -56 -28 -12 -38 -29 -24 -42 9 -10 144 55 144 69 0 16 -15 17 -41 3 -17
-10 -19 -7 -19 30 0 36 2 40 25 40 16 0 25 6 25 15 0 9 -9 15 -25 15 -22 0
-25 4 -25 40 0 36 3 40 25 40 16 0 25 6 25 15 0 12 -14 15 -65 15 -51 0 -65
-3 -65 -15z"/>
<path d="M12350 10491 l0 -80 37 -3 c27 -2 39 -8 41 -20 3 -15 -4 -18 -37 -18
-30 0 -41 -4 -41 -15 0 -11 11 -15 40 -15 38 0 40 -2 40 -30 0 -30 -1 -30 -55
-30 -42 0 -55 -3 -55 -15 0 -12 19 -15 115 -15 96 0 115 3 115 15 0 11 -12 15
-45 15 -43 0 -45 1 -45 30 0 28 3 30 35 30 24 0 35 5 35 15 0 10 -11 15 -35
15 -28 0 -35 4 -35 20 0 16 7 20 35 20 l35 0 0 80 0 80 -90 0 -90 0 0 -79z
m78 37 c-2 -15 -11 -24 -25 -26 -19 -3 -23 1 -23 22 0 21 5 26 26 26 21 0 25
-4 22 -22z m72 -3 c0 -18 -5 -25 -20 -25 -15 0 -20 7 -20 25 0 18 5 25 20 25
15 0 20 -7 20 -25z m-70 -70 c0 -20 -5 -25 -25 -25 -20 0 -25 5 -25 25 0 20 5
25 25 25 20 0 25 -5 25 -25z m70 0 c0 -18 -5 -25 -20 -25 -15 0 -20 7 -20 25
0 18 5 25 20 25 15 0 20 -7 20 -25z"/>
<path d="M10398 10552 c-78 -2 -98 -6 -98 -17 0 -12 16 -15 80 -15 44 0 80 -4
80 -8 0 -4 -13 -28 -28 -53 -34 -53 -93 -106 -138 -125 -23 -10 -32 -19 -28
-29 10 -25 70 2 135 62 l26 24 51 -55 c42 -46 52 -53 62 -41 10 12 2 25 -40
69 l-52 55 28 48 c16 26 33 51 39 55 6 5 5 12 -5 20 -11 9 -44 12 -112 10z"/>
<path d="M10690 10420 c0 -158 2 -160 104 -107 92 48 160 106 151 129 -6 15
-13 12 -54 -23 -49 -44 -111 -82 -149 -94 l-24 -7 4 116 c3 105 1 116 -14 116
-16 0 -18 -13 -18 -130z"/>
<path d="M11650 10542 c0 -5 9 -17 19 -26 22 -20 40 -4 21 19 -13 16 -40 20
-40 7z"/>
<path d="M11160 10448 c1 -7 7 -24 15 -38 11 -21 15 -22 20 -8 7 18 -10 58
-25 58 -6 0 -10 -6 -10 -12z"/>
<path d="M11270 10440 c0 -54 -56 -137 -113 -166 -15 -8 -25 -19 -22 -24 12
-20 37 -9 83 38 62 61 101 172 61 172 -5 0 -9 -9 -9 -20z"/>
<path d="M11080 10435 c0 -16 26 -55 37 -55 16 0 16 2 1 35 -9 21 -38 36 -38
20z"/>
<path d="M11870 10348 l0 -93 110 0 110 0 0 43 0 42 -95 0 c-57 0 -95 4 -95
10 0 6 35 10 85 10 l85 0 0 40 0 40 -100 0 -100 0 0 -92z m170 52 c0 -18 -7
-20 -70 -20 -63 0 -70 2 -70 20 0 18 7 20 70 20 63 0 70 -2 70 -20z m20 -100
c0 -18 -7 -20 -80 -20 -73 0 -80 2 -80 20 0 18 7 20 80 20 73 0 80 -2 80 -20z"/>
<path d="M10177 9970 c-80 -15 -132 -79 -142 -173 -4 -34 -5 -249 -3 -477 3
-369 5 -418 20 -446 23 -43 71 -81 116 -94 52 -14 2393 -14 2445 1 51 14 104
63 117 107 8 25 10 195 8 508 l-3 471 -29 37 c-58 76 38 71 -1296 72 -657 1
-1212 -1 -1233 -6z m2464 -53 c70 -46 69 -40 69 -542 0 -502 1 -496 -69 -542
l-34 -23 -1216 0 c-1159 0 -1218 1 -1250 18 -72 39 -71 32 -71 547 0 515 -1
508 71 547 32 17 91 18 1250 18 l1216 0 34 -23z"/>
<path d="M10884 9756 c-12 -31 0 -51 30 -51 36 0 56 26 37 49 -17 20 -60 21
-67 2z m46 -21 c0 -8 -7 -15 -15 -15 -8 0 -15 7 -15 15 0 8 7 15 15 15 8 0 15
-7 15 -15z"/>
<path d="M11500 9691 l0 -49 -45 -6 c-31 -5 -45 -12 -45 -23 0 -13 8 -15 45
-10 l45 7 0 -64 c0 -88 10 -96 111 -96 70 0 79 2 79 18 0 16 -9 18 -72 18
l-73 -1 -3 61 c-3 57 -1 62 20 68 31 8 88 8 88 -1 0 -3 -12 -21 -26 -40 -27
-35 -27 -50 1 -40 19 8 77 97 72 112 -4 10 -103 9 -139 -1 -16 -5 -18 2 -18
45 0 44 -3 51 -20 51 -17 0 -20 -7 -20 -49z"/>
<path d="M11938 9722 c-78 -2 -98 -6 -98 -17 0 -12 16 -15 80 -15 44 0 80 -4
80 -8 0 -4 -13 -28 -28 -53 -34 -53 -93 -106 -138 -125 -23 -10 -32 -19 -28
-29 10 -25 70 2 135 62 l26 24 51 -55 c42 -46 52 -53 62 -41 10 12 2 25 -40
69 l-52 55 28 48 c16 26 33 51 39 55 6 5 5 12 -5 20 -11 9 -44 12 -112 10z"/>
<path d="M10743 9713 c-91 -3 -113 -6 -113 -18 0 -12 19 -15 105 -15 119 0
120 -1 86 -75 -23 -52 -70 -99 -121 -121 -31 -14 -37 -21 -29 -31 17 -19 31
-16 84 19 53 35 96 95 121 170 12 39 13 52 4 63 -7 8 -15 14 -19 13 -3 -1 -57
-4 -118 -5z"/>
<path d="M11030 9580 c0 -109 2 -130 15 -130 8 0 15 7 15 15 0 12 18 15 100
15 82 0 100 -3 100 -15 0 -8 7 -15 15 -15 13 0 15 21 15 130 l0 130 -130 0
-130 0 0 -130z m230 15 l0 -85 -100 0 -100 0 0 85 0 85 100 0 100 0 0 -85z"/>
<path d="M10695 9221 c-8 -26 -31 -66 -50 -89 -19 -22 -35 -45 -35 -51 0 -25
37 -8 64 29 26 34 35 40 68 40 37 0 38 -1 38 -35 0 -45 -30 -105 -70 -138 -28
-24 -29 -27 -12 -36 38 -20 101 71 117 167 l7 42 49 0 c37 0 49 4 49 15 0 12
-18 15 -100 15 -55 0 -100 2 -100 5 0 3 6 21 14 40 8 18 12 36 8 39 -16 16
-32 1 -47 -43z"/>
<path d="M11270 9256 c0 -19 27 -39 40 -31 8 5 6 13 -6 26 -20 22 -34 25 -34
5z"/>
<path d="M10363 9242 c-74 -2 -93 -6 -93 -17 0 -12 16 -15 80 -15 l80 0 -20
-40 c-28 -54 -89 -114 -145 -143 -40 -20 -44 -25 -32 -36 19 -15 60 4 118 56
39 35 40 36 61 17 11 -11 33 -36 48 -56 23 -32 30 -36 40 -23 14 17 -12 59
-60 97 l-30 23 36 59 c45 76 39 82 -83 78z"/>
<path d="M11066 9241 c-8 -12 61 -54 74 -46 17 11 11 24 -20 40 -33 17 -47 19
-54 6z"/>
<path d="M12240 9235 c0 -12 17 -15 95 -15 78 0 95 3 95 15 0 12 -17 15 -95
15 -78 0 -95 -3 -95 -15z"/>
<path d="M11220 9232 c0 -5 9 -17 19 -26 22 -20 40 -4 21 19 -13 16 -40 20
-40 7z"/>
<path d="M11026 9155 c-6 -16 58 -60 74 -50 19 12 10 24 -29 45 -32 16 -40 17
-45 5z"/>
<path d="M12323 9163 c-100 -3 -123 -6 -123 -18 0 -12 20 -15 110 -15 61 0
110 -4 110 -9 0 -27 -70 -107 -113 -129 -37 -20 -45 -28 -36 -38 25 -31 134
58 178 145 19 35 20 75 2 69 -3 -1 -61 -4 -128 -5z"/>
<path d="M11243 9116 c-28 -44 -98 -101 -156 -126 -32 -14 -44 -25 -41 -35 9
-21 22 -19 84 17 65 37 162 133 158 156 -5 27 -22 23 -45 -12z"/>
<path d="M11460 9110 c0 -6 27 -10 61 -10 l62 0 -7 -37 c-3 -21 -6 -48 -6 -60
0 -22 -4 -23 -80 -23 -47 0 -80 -4 -80 -10 0 -6 52 -10 135 -10 83 0 135 4
135 10 0 6 -18 10 -40 10 -37 0 -40 2 -40 28 1 15 5 46 9 70 l8 42 -78 0 c-46
0 -79 -4 -79 -10z"/>
<path d="M11800 9105 c0 -13 22 -15 140 -15 118 0 140 2 140 15 0 13 -22 15
-140 15 -118 0 -140 -2 -140 -15z"/>
<path d="M10651 6764 c2 -6 166 -193 363 -417 220 -247 364 -403 371 -399 6 4
159 96 339 206 180 109 325 201 323 203 -4 4 -514 -185 -608 -225 l-46 -20
-210 187 c-435 387 -536 474 -532 465z"/>
<path d="M10730 5530 l0 -360 690 0 690 0 0 360 0 360 -690 0 -690 0 0 -360z
m1350 0 l0 -330 -660 0 -660 0 0 330 0 330 660 0 660 0 0 -330z"/>
<path d="M11277 5723 c-4 -3 -7 -15 -7 -25 0 -14 -8 -18 -36 -18 -45 0 -42
-24 4 -28 24 -2 32 -8 32 -23 0 -16 -7 -19 -45 -19 -33 0 -45 -4 -45 -15 0
-12 19 -15 110 -15 91 0 110 3 110 15 0 11 -12 15 -45 15 -38 0 -45 3 -45 20
0 16 7 20 35 20 24 0 35 5 35 15 0 10 -11 15 -35 15 -31 0 -35 3 -35 25 0 24
-18 34 -33 18z"/>
<path d="M11690 5671 l0 -61 -40 0 c-29 0 -40 -4 -40 -15 0 -11 11 -15 40 -15
l40 0 0 -100 c0 -82 3 -100 15 -100 12 0 15 18 15 100 l0 100 40 0 c29 0 40 4
40 15 0 11 -11 15 -40 15 l-39 0 -3 57 c-4 81 -28 85 -28 4z"/>
<path d="M11450 5710 c0 -6 32 -10 75 -10 43 0 75 4 75 10 0 6 -32 10 -75 10
-43 0 -75 -4 -75 -10z"/>
<path d="M11050 5555 c0 -128 1 -135 20 -135 15 0 20 7 20 25 0 18 5 25 20 25
12 0 20 -7 20 -16 0 -9 7 -14 18 -12 15 3 17 18 20 126 l3 122 -61 0 -60 0 0
-135z m80 75 c0 -33 -3 -40 -20 -40 -17 0 -20 7 -20 40 0 33 3 40 20 40 17 0
20 -7 20 -40z m0 -100 c0 -33 -3 -40 -20 -40 -17 0 -20 7 -20 40 0 33 3 40 20
40 17 0 20 -7 20 -40z"/>
<path d="M11440 5660 c0 -6 37 -10 90 -10 53 0 90 4 90 10 0 6 -37 10 -90 10
-53 0 -90 -4 -90 -10z"/>
<path d="M11450 5600 c0 -6 32 -10 75 -10 43 0 75 4 75 10 0 6 -32 10 -75 10
-43 0 -75 -4 -75 -10z"/>
<path d="M11310 5550 c0 -18 -7 -20 -65 -20 -37 0 -65 -4 -65 -10 0 -6 28 -10
65 -10 l65 0 0 -45 c0 -39 -3 -45 -21 -45 -31 0 -17 -24 16 -28 35 -4 45 10
45 71 0 43 2 47 25 47 14 0 25 5 25 10 0 6 -11 10 -25 10 -18 0 -25 5 -25 20
0 13 -7 20 -20 20 -13 0 -20 -7 -20 -20z"/>
<path d="M11450 5550 c0 -6 32 -10 75 -10 43 0 75 4 75 10 0 6 -32 10 -75 10
-43 0 -75 -4 -75 -10z"/>
<path d="M11450 5440 c0 -47 3 -60 15 -60 8 0 15 5 15 10 0 6 20 10 45 10 25
0 45 -4 45 -10 0 -5 7 -10 15 -10 12 0 15 13 15 60 l0 60 -75 0 -75 0 0 -60z
m120 10 c0 -29 -2 -30 -45 -30 -43 0 -45 1 -45 30 0 29 2 30 45 30 43 0 45 -1
45 -30z"/>
<path d="M11213 5482 c-9 -6 -8 -14 5 -34 12 -18 22 -24 31 -19 11 7 10 14 -4
35 -10 14 -18 26 -19 26 0 0 -6 -4 -13 -8z"/>
<path d="M16855 11399 c-595 -38 -1099 -177 -1299 -360 -85 -78 -110 -125
-111 -204 0 -48 6 -69 27 -106 94 -160 367 -292 780 -378 959 -199 2252 -44
2582 309 121 130 113 248 -26 375 -284 259 -1124 416 -1953 364z m550 -29
c803 -38 1407 -238 1471 -489 68 -271 -500 -512 -1351 -572 -191 -13 -677 -7
-840 11 -262 29 -495 72 -670 125 -424 129 -615 311 -511 489 130 222 723 403
1425 435 243 11 247 11 476 1z"/>
<path d="M16123 11044 c-7 -3 -13 -16 -13 -30 0 -31 44 -44 68 -20 29 29 -14
67 -55 50z m42 -23 c7 -12 -12 -24 -25 -16 -11 7 -4 25 10 25 5 0 11 -4 15 -9z"/>
<path d="M18244 11018 c-9 -18 -30 -53 -47 -77 -24 -35 -27 -45 -16 -52 9 -6
18 -3 27 8 10 14 12 -3 12 -95 0 -89 3 -112 14 -112 11 0 15 29 18 143 3 116
7 147 22 169 17 26 15 48 -4 48 -5 0 -17 -15 -26 -32z"/>
<path d="M17400 10860 c0 -163 1 -170 20 -170 19 0 20 7 20 110 l0 110 60 0
60 0 0 60 0 60 -80 0 -80 0 0 -170z m120 135 c0 -11 -11 -15 -40 -15 -29 0
-40 4 -40 15 0 11 11 15 40 15 29 0 40 -4 40 -15z m0 -50 c0 -11 -11 -15 -40
-15 -29 0 -40 4 -40 15 0 11 11 15 40 15 29 0 40 -4 40 -15z"/>
<path d="M17580 10970 l0 -60 60 0 60 0 0 -95 c0 -88 -1 -95 -20 -95 -13 0
-18 -5 -14 -15 9 -21 51 -19 64 4 5 11 10 86 10 170 l0 151 -80 0 -80 0 0 -60z
m120 25 c0 -11 -11 -15 -40 -15 -29 0 -40 4 -40 15 0 11 11 15 40 15 29 0 40
-4 40 -15z m0 -50 c0 -11 -11 -15 -40 -15 -29 0 -40 4 -40 15 0 11 11 15 40
15 29 0 40 -4 40 -15z"/>
<path d="M17800 11021 c0 -14 41 -81 49 -81 19 0 19 16 -1 51 -20 36 -48 53
-48 30z"/>
<path d="M17910 11020 c0 -6 27 -10 61 -10 55 0 60 -2 48 -16 -7 -9 -21 -13
-34 -10 -30 8 -38 -4 -18 -26 15 -17 14 -18 -20 -18 l-37 0 0 -100 c0 -55 -4
-100 -8 -100 -21 0 -32 29 -32 82 l0 58 -40 0 c-29 0 -40 -4 -40 -15 0 -9 9
-15 25 -15 22 0 25 -4 25 -39 0 -33 -5 -43 -30 -61 -25 -18 -29 -25 -19 -36
10 -13 15 -12 35 7 l22 21 29 -21 c26 -20 40 -21 143 -19 100 3 115 5 118 21
2 11 -3 17 -15 17 -16 0 -18 9 -15 100 l3 100 -40 0 c-54 0 -58 13 -16 45 19
15 32 31 29 36 -7 13 -174 11 -174 -1z m80 -120 c0 -15 -7 -20 -25 -20 -18 0
-25 5 -25 20 0 15 7 20 25 20 18 0 25 -5 25 -20z m85 0 c0 -9 -11 -16 -27 -18
-23 -3 -28 1 -28 18 0 17 5 21 28 18 16 -2 27 -9 27 -18z m-85 -55 c0 -9 -9
-15 -25 -15 -16 0 -25 6 -25 15 0 9 9 15 25 15 16 0 25 -6 25 -15z m88 3 c-7
-20 -58 -23 -58 -4 0 11 10 16 31 16 20 0 29 -4 27 -12z m-88 -73 c0 -24 5
-35 15 -35 10 0 15 11 15 35 0 32 2 35 30 35 34 0 43 -29 11 -37 -23 -6 -18
-30 7 -36 10 -3 -21 -5 -68 -5 -47 0 -79 2 -72 5 6 2 12 20 12 39 0 30 3 34
25 34 22 0 25 -4 25 -35z"/>
<path d="M18320 11015 c0 -12 16 -15 85 -15 69 0 85 3 85 15 0 12 -16 15 -85
15 -69 0 -85 -3 -85 -15z"/>
<path d="M16740 10972 l0 -49 -50 -7 c-36 -5 -50 -11 -50 -23 0 -13 8 -14 50
-9 l50 7 0 -69 c0 -39 5 -73 12 -80 7 -7 43 -12 90 -12 68 0 78 2 78 18 0 15
-10 17 -72 17 l-73 0 -3 61 c-3 68 3 74 76 74 39 0 40 -9 7 -48 -30 -36 -31
-42 -6 -42 23 0 85 95 77 116 -5 13 -37 13 -129 -1 -28 -5 -28 -4 -26 43 3 38
0 47 -14 50 -14 3 -17 -5 -17 -46z"/>
<path d="M17168 11002 c-78 -2 -98 -6 -98 -17 0 -12 16 -15 80 -15 92 0 96 -5
52 -66 -38 -51 -97 -103 -140 -121 -32 -13 -33 -16 -19 -30 14 -14 19 -13 59
10 24 14 54 37 67 51 30 31 47 24 92 -39 29 -41 34 -44 48 -30 14 13 10 21
-37 68 l-53 53 28 50 c15 27 32 52 37 56 7 5 6 12 -4 20 -11 9 -44 12 -112 10z"/>
<path d="M15978 10992 c-96 -2 -118 -5 -118 -17 0 -12 19 -15 105 -15 122 0
124 -3 80 -90 -26 -52 -72 -93 -124 -111 -25 -9 -29 -14 -20 -25 16 -20 29
-18 81 15 57 36 92 82 122 159 33 84 27 88 -126 84z"/>
<path d="M16260 10866 c0 -126 9 -158 35 -123 10 14 30 17 100 17 70 0 90 -3
100 -17 26 -35 35 -3 35 123 l0 124 -135 0 -135 0 0 -124z m230 9 l0 -85 -95
0 -95 0 0 85 0 85 95 0 95 0 0 -85z"/>
<path d="M18280 10955 c0 -13 21 -15 130 -15 109 0 130 2 130 15 0 13 -21 15
-130 15 -109 0 -130 -2 -130 -15z"/>
<path d="M18320 10905 c0 -12 16 -15 85 -15 69 0 85 3 85 15 0 12 -16 15 -85
15 -69 0 -85 -3 -85 -15z"/>
<path d="M17490 10800 c0 -63 2 -70 20 -70 11 0 20 5 20 10 0 6 18 10 40 10
22 0 40 -4 40 -10 0 -5 9 -10 20 -10 18 0 20 7 20 70 l0 70 -80 0 -80 0 0 -70z
m120 35 c0 -11 -11 -15 -40 -15 -29 0 -40 4 -40 15 0 11 11 15 40 15 29 0 40
-4 40 -15z m0 -50 c0 -11 -11 -15 -40 -15 -29 0 -40 4 -40 15 0 11 11 15 40
15 29 0 40 -4 40 -15z"/>
<path d="M18320 10845 c0 -12 16 -15 85 -15 69 0 85 3 85 15 0 12 -16 15 -85
15 -69 0 -85 -3 -85 -15z"/>
<path d="M18310 10756 c0 -54 15 -81 30 -56 6 9 29 11 84 8 l76 -5 0 54 0 53
-95 0 -95 0 0 -54z m160 4 c0 -18 -7 -20 -65 -20 -58 0 -65 2 -65 20 0 18 7
20 65 20 58 0 65 -2 65 -20z"/>
<path d="M5970 11394 c-484 -29 -896 -115 -1165 -243 -319 -153 -391 -343
-196 -523 428 -397 1997 -503 2890 -196 259 89 428 209 467 331 l18 57 408 0
408 0 0 -55 c0 -30 2 -55 5 -55 2 0 37 13 78 29 103 41 255 87 377 115 l105
23 -66 12 c-94 16 -260 64 -385 111 -58 22 -108 40 -110 40 -2 0 -4 -25 -4
-55 l0 -55 -422 0 -421 0 -54 60 c-174 191 -614 333 -1213 390 -119 11 -605
21 -720 14z m685 -45 c395 -31 763 -114 990 -223 206 -100 295 -190 295 -302
0 -227 -472 -432 -1175 -510 -196 -22 -660 -29 -870 -15 -773 55 -1324 260
-1361 506 -16 110 95 231 300 325 408 187 1125 273 1821 219z"/>
<path d="M6056 11042 c-10 -17 17 -53 32 -43 10 6 8 13 -6 31 -13 16 -21 20
-26 12z"/>
<path d="M6100 11042 c0 -5 6 -16 13 -27 16 -20 31 -7 21 19 -6 16 -34 23 -34
8z"/>
<path d="M5505 11019 c-4 -6 -5 -11 -4 -13 29 -21 77 -44 82 -39 15 14 5 30
-28 46 -42 20 -42 20 -50 6z"/>
<path d="M5934 10994 c-10 -20 -32 -52 -51 -72 -24 -25 -31 -38 -23 -46 8 -8
22 1 51 32 37 39 43 42 94 42 l54 0 -8 -28 c-19 -65 -55 -113 -118 -159 -32
-23 -39 -33 -30 -42 17 -17 24 -14 79 37 51 47 129 184 120 210 -2 8 -26 12
-68 12 -58 0 -84 12 -52 22 8 3 5 9 -9 16 -20 11 -24 9 -39 -24z"/>
<path d="M6370 10975 l0 -45 -75 0 c-60 0 -75 -3 -75 -15 0 -12 14 -15 70 -15
l70 0 0 -32 c0 -45 -33 -95 -75 -115 -27 -13 -32 -19 -24 -30 15 -18 26 -16
60 8 34 24 64 78 74 132 l7 37 64 0 c50 0 64 3 64 15 0 12 -14 15 -66 15 l-66
0 4 45 c3 38 0 45 -14 45 -15 0 -18 -9 -18 -45z"/>
<path d="M6780 10880 c0 -145 5 -151 85 -91 59 44 83 77 68 92 -6 6 -27 -8
-55 -36 -25 -25 -51 -45 -58 -45 -9 0 -11 26 -8 100 3 90 1 100 -14 100 -16 0
-18 -12 -18 -120z"/>
<path d="M6690 10938 c0 -75 -16 -123 -50 -151 -25 -22 -27 -27 -14 -37 35
-30 89 65 98 173 5 62 4 67 -14 67 -17 0 -20 -7 -20 -52z"/>
<path d="M5467 10933 c-14 -13 -6 -23 32 -42 58 -30 74 -5 19 29 -36 22 -41
23 -51 13z"/>
<path d="M5700 10904 c-22 -41 -109 -114 -167 -141 -36 -17 -50 -28 -46 -39 7
-19 16 -18 66 7 58 30 110 72 154 125 32 40 35 47 21 60 -13 13 -16 11 -28
-12z"/>
<path d="M13865 10937 c-112 -43 -269 -90 -360 -107 -116 -21 -116 -21 0 -45
117 -25 263 -69 383 -116 40 -16 75 -29 77 -29 3 0 5 25 5 55 l0 55 415 0 415
0 0 -55 c0 -30 3 -55 8 -55 4 0 48 16 97 35 108 43 266 90 382 114 l85 17 -82
18 c-121 26 -275 71 -376 111 -49 19 -95 35 -101 35 -9 0 -13 -18 -13 -55 l0
-55 -415 0 -414 0 -3 58 -3 58 -100 -39z"/>
<path d="M255 9061 c-22 -10 -48 -28 -58 -39 -43 -48 -46 -80 -46 -462 -1
-334 1 -368 18 -405 21 -46 53 -78 96 -97 24 -10 198 -14 842 -16 l813 -3 0
-994 0 -995 -55 0 c-30 0 -55 -2 -55 -5 0 -2 13 -37 29 -78 41 -103 87 -255
115 -377 l23 -105 12 60 c22 108 70 274 115 391 l43 114 -58 0 -59 0 0 995 0
994 818 3 c778 3 819 4 855 22 21 10 50 35 65 54 l27 35 3 381 c2 210 0 396
-3 414 -7 40 -59 101 -102 118 -27 12 -324 14 -1715 14 -1612 0 -1685 -1
-1723 -19z m3432 -30 c30 -14 48 -31 63 -61 20 -39 21 -52 18 -420 -3 -365 -4
-380 -24 -407 -11 -15 -36 -36 -55 -45 -32 -17 -134 -18 -1712 -18 -1862 0
-1726 -5 -1768 64 -18 29 -19 57 -19 423 l0 392 31 36 c17 19 45 39 63 44 18
5 725 9 1696 10 1616 1 1666 0 1707 -18z"/>
<path d="M2097 8743 c-13 -12 -7 -21 29 -42 42 -25 40 -25 47 -7 4 10 -6 23
-27 35 -37 23 -40 24 -49 14z"/>
<path d="M1408 8685 c-32 -30 -80 -64 -108 -77 -27 -13 -50 -26 -50 -31 0 -20
34 -17 76 7 26 14 48 26 50 26 2 0 4 -40 4 -90 0 -73 3 -90 15 -90 12 0 15 18
15 104 l0 104 45 40 c33 29 41 42 33 50 -17 17 -17 17 -80 -43z"/>
<path d="M2558 8722 c-78 -2 -98 -6 -98 -17 0 -12 16 -15 80 -15 44 0 80 -4
80 -8 0 -4 -13 -28 -28 -53 -34 -53 -93 -106 -138 -125 -23 -10 -32 -19 -28
-29 10 -25 70 2 135 62 l26 24 51 -55 c42 -46 52 -53 62 -41 10 12 2 25 -40
69 l-52 55 28 48 c16 26 33 51 39 55 6 5 5 12 -5 20 -11 9 -44 12 -112 10z"/>
<path d="M2860 8715 c0 -12 18 -15 100 -15 82 0 100 3 100 15 0 12 -18 15
-100 15 -82 0 -100 -3 -100 -15z"/>
<path d="M3285 8612 c-37 -109 -42 -117 -68 -120 -22 -3 -25 -6 -18 -21 9 -16
14 -16 93 -1 157 32 158 32 170 4 11 -24 32 -32 42 -15 5 7 -53 114 -74 135
-5 5 -16 6 -25 2 -15 -5 -14 -9 5 -37 12 -16 21 -32 19 -34 -2 -1 -36 -7 -76
-12 l-71 -9 30 80 c16 45 35 93 43 108 11 23 11 28 -2 32 -8 3 -18 6 -21 6 -4
0 -25 -53 -47 -118z"/>
<path d="M588 8712 c-96 -2 -118 -5 -118 -17 0 -12 20 -15 110 -15 81 0 110
-3 110 -12 0 -7 -11 -36 -24 -63 -25 -55 -70 -99 -129 -125 -33 -15 -36 -19
-22 -30 13 -11 22 -11 49 3 72 34 132 106 156 187 4 14 11 33 15 42 11 27 -21
33 -147 30z"/>
<path d="M1790 8600 c0 -145 5 -151 85 -91 59 44 83 77 68 92 -6 6 -27 -8 -55
-36 -25 -25 -51 -45 -58 -45 -9 0 -11 26 -8 100 3 90 1 100 -14 100 -16 0 -18
-12 -18 -120z"/>
<path d="M1700 8658 c0 -75 -16 -123 -50 -151 -25 -22 -27 -27 -14 -37 35 -30
89 65 98 173 5 62 4 67 -14 67 -17 0 -20 -7 -20 -52z"/>
<path d="M2048 8648 c-3 -7 13 -23 35 -35 46 -27 43 -27 50 -9 6 15 -22 38
-60 50 -13 4 -23 2 -25 -6z"/>
<path d="M2293 8635 c-6 -10 -33 -41 -61 -69 -50 -50 -87 -75 -146 -96 -27
-10 -28 -12 -13 -27 15 -15 19 -15 59 3 43 19 161 122 179 156 6 11 6 25 1 35
-9 14 -10 14 -19 -2z"/>
<path d="M860 8630 c0 -5 49 -11 112 -12 l113 -3 -38 -41 c-33 -37 -38 -54
-16 -54 14 0 89 101 83 111 -7 12 -254 12 -254 -1z"/>
<path d="M2810 8615 c0 -12 15 -15 71 -15 l72 0 -7 -32 c-9 -43 -32 -76 -67
-96 -16 -10 -29 -21 -29 -25 0 -18 32 -17 64 2 38 24 66 74 66 120 l0 31 65 0
c51 0 65 3 65 15 0 13 -23 15 -150 15 -127 0 -150 -2 -150 -15z"/>
<path d="M970 8571 c0 -41 -17 -81 -46 -112 -30 -32 -14 -51 18 -23 29 27 45
62 53 117 6 39 5 47 -9 47 -11 0 -16 -9 -16 -29z"/>
<path d="M5434 9061 c-47 -22 -80 -59 -95 -110 -7 -23 -9 -167 -7 -413 l3
-376 31 -39 c16 -21 48 -47 70 -58 37 -19 62 -20 617 -23 l577 -3 0 -385 0
-384 -56 0 c-50 0 -55 -2 -48 -17 29 -67 126 -375 142 -453 14 -69 21 -88 26
-70 3 14 15 67 27 119 21 92 76 265 118 369 l21 52 -60 0 -60 0 0 385 0 385
605 0 c398 0 621 4 655 11 59 12 107 49 126 96 18 41 20 775 3 820 -14 38 -57
83 -96 99 -27 12 -245 14 -1295 14 -1208 0 -1265 -1 -1304 -19z m2612 -38 c64
-46 65 -51 62 -472 -3 -366 -4 -381 -24 -408 -11 -15 -36 -36 -55 -45 -32 -17
-114 -18 -1294 -18 -1210 0 -1262 1 -1295 19 -19 10 -44 34 -55 52 -19 32 -20
52 -20 404 0 204 3 382 7 396 10 35 54 77 92 88 18 6 560 9 1291 8 l1260 -2
31 -22z"/>
<path d="M6024 8718 c-15 -29 -35 -65 -45 -80 -11 -14 -19 -31 -19 -37 0 -17
30 -13 36 4 15 39 24 6 24 -90 0 -87 3 -105 15 -105 13 0 15 23 15 145 0 109
4 153 15 174 13 27 11 41 -6 41 -5 0 -21 -24 -35 -52z"/>
<path d="M6440 8735 c0 -22 -4 -25 -35 -25 -24 0 -35 -5 -35 -15 0 -9 9 -15
25 -15 32 0 31 -8 -5 -58 -37 -51 -20 -70 22 -23 l28 31 0 -50 c0 -38 4 -50
15 -50 11 0 15 12 15 52 0 51 0 51 20 33 16 -14 23 -16 32 -7 9 9 6 17 -10 35
-27 29 -28 37 -2 37 11 0 20 7 20 15 0 10 -10 15 -31 15 -28 0 -31 2 -25 25 5
20 3 25 -14 25 -15 0 -20 -7 -20 -25z"/>
<path d="M7200 8585 c0 -149 2 -175 15 -175 13 0 15 21 15 128 0 125 1 127 19
103 12 -16 21 -20 25 -12 5 7 47 11 122 11 69 0 114 4 114 10 0 6 -16 10 -36
10 -29 0 -35 3 -30 16 3 9 6 18 6 20 0 2 9 4 20 4 11 0 20 5 20 10 0 6 -21 10
-46 10 -41 0 -46 2 -41 20 4 15 0 20 -14 20 -12 0 -19 -7 -19 -20 0 -17 -7
-20 -45 -20 -25 0 -45 -4 -45 -10 0 -5 8 -10 19 -10 10 0 21 -9 24 -20 4 -17
0 -20 -24 -20 -17 0 -32 6 -35 14 -3 8 -12 12 -21 9 -13 -5 -15 1 -11 35 3 35
1 42 -14 42 -17 0 -18 -14 -18 -175z m220 111 c0 -20 -16 -36 -36 -36 -13 0
-24 2 -24 4 0 2 -3 11 -6 20 -5 13 1 16 30 16 20 0 36 -2 36 -4z"/>
<path d="M6110 8683 c0 -85 -16 -187 -36 -225 -13 -26 -13 -29 2 -35 26 -10
47 40 63 154 7 52 8 55 15 28 4 -16 16 -49 26 -72 l19 -42 -25 -20 c-14 -11
-34 -23 -45 -26 -21 -7 -25 -20 -9 -30 10 -6 85 29 95 44 3 6 21 -1 42 -14 41
-28 58 -31 66 -11 4 9 -3 16 -16 20 -12 3 -31 13 -41 21 -18 14 -18 15 2 62
11 26 23 65 27 86 l7 37 -81 0 -81 0 0 30 0 30 90 0 c73 0 90 3 90 15 0 12
-18 15 -105 15 l-105 0 0 -67z m150 -73 c0 -33 -28 -92 -40 -85 -12 7 -23 33
-34 78 -6 26 -5 27 34 27 34 0 40 -3 40 -20z"/>
<path d="M6540 8646 l0 -104 59 5 c38 4 61 2 65 -6 19 -30 26 -2 26 99 l0 110
-75 0 -75 0 0 -104z m120 59 c0 -11 -12 -15 -45 -15 -33 0 -45 4 -45 15 0 11
12 15 45 15 33 0 45 -4 45 -15z m0 -55 c0 -17 -7 -20 -45 -20 -31 0 -45 4 -45
13 0 21 11 27 52 27 31 0 38 -3 38 -20z m0 -55 c0 -11 -12 -15 -45 -15 -42 0
-54 7 -38 23 3 4 24 7 45 7 27 0 38 -4 38 -15z"/>
<path d="M6780 8740 c0 -6 27 -10 60 -10 33 0 60 4 60 10 0 6 -27 10 -60 10
-33 0 -60 -4 -60 -10z"/>
<path d="M6940 8740 c0 -6 27 -10 60 -10 l60 0 0 -55 0 -55 -60 0 -61 0 3 -92
3 -93 72 -3 71 -3 12 35 c11 35 7 56 -11 56 -5 0 -9 -10 -9 -23 0 -33 -19 -47
-62 -47 l-38 0 0 75 0 75 40 0 c22 0 40 -4 40 -10 0 -5 9 -10 20 -10 18 0 20
7 20 85 l0 85 -80 0 c-47 0 -80 -4 -80 -10z"/>
<path d="M6760 8680 c0 -6 35 -10 85 -10 50 0 85 4 85 10 0 6 -35 10 -85 10
-50 0 -85 -4 -85 -10z"/>
<path d="M7151 8629 c-6 -28 -11 -52 -11 -54 0 -8 30 -5 30 3 1 4 5 26 9 49 6
31 5 43 -5 47 -8 3 -16 -11 -23 -45z"/>
<path d="M6780 8630 c0 -6 27 -10 60 -10 33 0 60 4 60 10 0 6 -27 10 -60 10
-33 0 -60 -4 -60 -10z"/>
<path d="M7290 8570 l0 -50 44 0 c34 0 43 -4 42 -16 -1 -18 29 -42 40 -31 4 4
2 13 -4 19 -21 21 -13 28 28 28 l40 0 0 50 0 50 -95 0 -95 0 0 -50z m160 20
c0 -6 -28 -10 -65 -10 -37 0 -65 4 -65 10 0 6 28 10 65 10 37 0 65 -4 65 -10z
m0 -40 c0 -6 -28 -10 -65 -10 -37 0 -65 4 -65 10 0 6 28 10 65 10 37 0 65 -4
65 -10z"/>
<path d="M6780 8580 c0 -6 27 -10 60 -10 33 0 60 4 60 10 0 6 -27 10 -60 10
-33 0 -60 -4 -60 -10z"/>
<path d="M6516 8522 c-3 -5 3 -20 12 -35 12 -18 22 -23 32 -17 11 7 11 12 -4
34 -17 26 -31 33 -40 18z"/>
<path d="M6770 8475 c0 -48 2 -55 20 -55 11 0 20 5 20 10 0 6 14 10 30 10 17
0 30 -4 30 -10 0 -5 9 -10 20 -10 18 0 20 7 20 55 l0 55 -70 0 -70 0 0 -55z
m100 10 c0 -21 -5 -25 -30 -25 -25 0 -30 4 -30 25 0 21 5 25 30 25 25 0 30 -4
30 -25z"/>
<path d="M6386 8484 c-19 -42 -20 -54 -3 -54 7 0 21 16 30 35 20 43 20 42 3
48 -8 3 -19 -8 -30 -29z"/>
<path d="M6452 8473 l3 -48 73 -3 c80 -3 105 7 100 41 -4 27 -28 34 -28 9 0
-24 -18 -32 -70 -32 -42 0 -57 21 -45 60 5 16 2 20 -15 20 -19 0 -21 -5 -18
-47z"/>
<path d="M6636 8512 c-6 -10 41 -82 54 -82 20 0 18 19 -7 53 -26 37 -37 44
-47 29z"/>
<path d="M7320 8470 l0 -40 65 0 c69 0 85 11 70 48 -6 15 -8 15 -22 -5 -11
-17 -25 -23 -50 -23 -34 0 -35 1 -29 30 5 25 2 30 -14 30 -17 0 -20 -7 -20
-40z"/>
<path d="M7466 8502 c-8 -13 10 -52 24 -52 18 0 19 19 2 41 -13 15 -21 19 -26
11z"/>
<path d="M7266 8476 c-11 -18 -13 -27 -4 -32 13 -8 51 33 42 47 -9 15 -21 10
-38 -15z"/>
<path d="M15965 9066 c-37 -17 -80 -62 -94 -99 -7 -18 -11 -163 -11 -404 0
-362 1 -378 21 -420 15 -30 35 -52 67 -71 l47 -27 668 -3 667 -3 0 -385 0
-384 -59 0 -59 0 34 -87 c37 -94 96 -285 114 -368 5 -27 12 -60 15 -72 l5 -23
-882 0 c-494 0 -900 -4 -922 -10 -54 -12 -87 -38 -113 -90 l-23 -44 0 -603 c0
-484 3 -610 14 -636 18 -44 78 -94 123 -104 21 -4 790 -8 1708 -8 l1670 0 47
27 c32 19 52 41 67 71 21 43 21 54 21 648 0 687 2 661 -81 716 l-43 28 -788 3
c-675 2 -788 5 -788 17 0 34 72 290 110 390 23 61 44 118 47 128 5 15 -2 17
-51 17 l-56 0 0 385 0 384 548 3 c617 3 597 1 650 81 l27 41 0 402 0 402 -30
38 c-17 20 -46 45 -65 55 -33 18 -86 19 -1305 19 -1039 -1 -1275 -3 -1300 -14z
m2591 -37 c31 -15 48 -32 64 -64 20 -42 21 -54 18 -417 l-3 -373 -24 -34 c-46
-65 33 -61 -1348 -61 -1178 0 -1260 1 -1292 18 -19 9 -44 30 -55 45 -20 27
-21 42 -24 403 -3 356 -2 377 17 420 16 35 29 49 63 64 42 19 76 20 1292 20
1242 0 1250 0 1292 -21z m431 -2369 c72 -43 68 -5 68 -685 0 -592 -1 -611 -20
-644 -11 -18 -36 -42 -55 -52 -33 -18 -95 -19 -1713 -19 -1859 0 -1721 -5
-1770 64 l-22 31 -3 580 c-2 319 0 599 3 622 7 46 44 99 79 113 12 5 782 9
1711 9 1658 1 1691 1 1722 -19z"/>
<path d="M16945 8708 c-70 -55 -74 -192 -6 -252 12 -11 41 -21 68 -23 39 -4
53 -1 76 17 31 25 61 76 52 90 -12 19 -32 10 -46 -22 -20 -46 -57 -65 -96 -49
-39 16 -58 52 -58 111 0 58 19 95 56 110 35 15 65 6 85 -26 16 -24 54 -33 54
-13 0 6 -15 26 -34 45 -29 29 -41 34 -79 34 -30 0 -53 -7 -72 -22z"/>
<path d="M16630 8705 c0 -11 12 -15 50 -15 l50 0 0 -125 c0 -118 1 -125 20
-125 19 0 20 7 20 125 l0 125 50 0 c38 0 50 4 50 15 0 13 -20 15 -120 15 -100
0 -120 -2 -120 -15z"/>
<path d="M17190 8580 l0 -140 25 0 c24 0 25 3 25 60 l0 60 56 0 c30 0 64 4 74
10 26 14 42 65 29 97 -16 44 -37 52 -126 53 l-83 0 0 -140z m151 100 c22 -12
26 -59 7 -78 -7 -7 -34 -12 -60 -12 l-48 0 0 50 0 50 41 0 c22 0 49 -5 60 -10z"/>
<path d="M17507 8713 c-7 -12 -87 -264 -87 -275 0 -5 5 -8 11 -6 8 3 98 262
99 286 0 5 -19 1 -23 -5z"/>
<path d="M17560 8580 l0 -140 25 0 25 0 0 140 0 140 -25 0 -25 0 0 -140z"/>
<path d="M17670 8580 l0 -140 25 0 c24 0 25 3 25 60 l0 60 56 0 c30 0 64 4 74
10 26 14 42 65 29 97 -16 44 -37 52 -126 53 l-83 0 0 -140z m151 100 c22 -12
26 -59 7 -78 -7 -7 -34 -12 -60 -12 l-48 0 0 50 0 50 41 0 c22 0 49 -5 60 -10z"/>
<path d="M16025 6400 c-5 -9 63 -50 85 -50 22 0 9 30 -20 45 -33 17 -56 19
-65 5z"/>
<path d="M18568 6323 c-3 -82 -5 -88 -25 -91 -32 -5 -17 -32 17 -32 36 0 40
12 40 121 0 71 -3 89 -15 89 -11 0 -15 -19 -17 -87z"/>
<path d="M18020 6374 c-6 -14 -31 -47 -56 -74 -40 -43 -44 -51 -29 -56 13 -5
29 4 57 34 36 39 42 42 93 42 30 0 55 -2 55 -4 0 -1 -5 -18 -12 -37 -17 -52
-63 -111 -113 -144 -49 -33 -53 -40 -29 -49 37 -14 122 71 170 171 20 40 32
77 29 83 -3 5 -35 10 -71 10 -63 0 -74 6 -53 27 7 7 4 12 -11 16 -16 4 -23 -1
-30 -19z"/>
<path d="M18290 6391 c0 -5 9 -11 20 -14 14 -3 20 -14 20 -31 0 -22 -4 -26
-30 -26 -16 0 -30 -4 -30 -10 0 -5 11 -10 25 -10 33 0 34 -32 1 -65 -20 -19
-22 -26 -11 -35 17 -14 52 22 63 65 13 48 36 38 40 -17 2 -34 7 -48 18 -48 10
0 14 13 14 50 0 47 2 50 25 50 14 0 25 5 25 10 0 6 -11 10 -25 10 -21 0 -25 5
-25 30 0 20 5 30 15 30 8 0 15 5 15 10 0 6 -33 10 -80 10 -44 0 -80 -4 -80 -9z
m98 -44 c2 -19 -1 -27 -12 -27 -11 0 -16 10 -16 31 0 38 24 35 28 -4z"/>
<path d="M18500 6319 c0 -60 3 -80 13 -77 8 3 13 31 15 81 2 64 0 77 -13 77
-12 0 -15 -15 -15 -81z"/>
<path d="M16830 6240 c0 -127 2 -150 15 -150 12 0 15 16 15 80 0 93 3 95 74
49 32 -20 52 -27 58 -21 6 6 7 15 4 21 -12 19 -116 72 -127 65 -9 -5 -10 9 -7
50 4 49 2 56 -14 56 -17 0 -18 -11 -18 -150z"/>
<path d="M17258 6372 l-128 -3 0 -69 c0 -63 2 -70 20 -70 18 0 20 7 20 55 l0
55 99 0 99 0 -9 -41 c-18 -79 -82 -169 -131 -185 -22 -7 -19 -28 5 -32 21 -4
92 61 122 112 32 54 58 162 42 173 -7 4 -69 7 -139 5z"/>
<path d="M16058 6333 c-78 -3 -98 -7 -98 -18 0 -12 17 -15 87 -15 l87 0 -29
-30 c-30 -32 -137 -90 -164 -90 -13 0 -13 -2 2 -17 16 -16 20 -16 67 4 l50 21
0 -59 c0 -52 2 -59 20 -59 18 0 20 7 20 77 0 77 0 78 40 118 28 28 39 47 34
58 -3 9 -9 16 -13 15 -3 -1 -50 -4 -103 -5z"/>
<path d="M16440 6275 c0 -16 26 -55 37 -55 16 0 16 2 1 35 -9 21 -38 36 -38
20z"/>
<path d="M16554 6253 c-12 -56 -39 -105 -73 -134 -20 -16 -41 -29 -48 -29 -15
0 -17 -16 -3 -25 15 -9 76 31 100 65 24 34 61 136 53 144 -13 13 -23 5 -29
-21z"/>
<path d="M16370 6247 c0 -19 27 -53 36 -45 9 10 -12 58 -26 58 -5 0 -10 -6
-10 -13z"/>
<path d="M17510 6235 c0 -13 22 -15 140 -15 118 0 140 2 140 15 0 13 -22 15
-140 15 -118 0 -140 -2 -140 -15z"/>
<path d="M18430 6200 c0 -29 -1 -30 -50 -30 -27 0 -50 -4 -50 -10 0 -5 23 -10
50 -10 49 0 50 -1 50 -30 l0 -30 -80 0 c-47 0 -80 -4 -80 -10 0 -6 65 -10 175
-10 110 0 175 4 175 10 0 6 -33 10 -80 10 l-80 0 0 30 c0 30 1 30 55 30 30 0
55 5 55 10 0 6 -25 10 -56 10 l-56 0 6 30 c5 25 2 30 -14 30 -16 0 -20 -7 -20
-30z"/>
<path d="M16125 6209 c-4 -6 -5 -12 -4 -13 71 -53 78 -56 85 -45 5 8 -5 23
-26 41 -38 31 -46 33 -55 17z"/>
<path d="M16014 5928 c-7 -10 21 -38 38 -38 16 0 8 25 -12 37 -14 9 -21 10
-26 1z"/>
<path d="M16405 5929 c-8 -13 13 -39 31 -39 21 0 17 23 -6 37 -13 8 -21 9 -25
2z"/>
<path d="M18765 5929 c-7 -10 21 -38 38 -39 11 0 8 25 -5 38 -15 15 -25 15
-33 1z"/>
<path d="M17575 5910 c-10 -16 26 -53 39 -40 7 7 4 17 -11 31 -14 15 -23 18
-28 9z"/>
<path d="M16360 5897 c0 -7 9 -18 20 -24 26 -17 40 5 15 24 -23 16 -35 17 -35
0z"/>
<path d="M16697 5856 c-32 -30 -82 -65 -112 -77 -30 -13 -53 -28 -51 -34 6
-19 37 -16 81 9 l45 25 0 -90 c0 -82 1 -89 20 -89 19 0 20 7 21 108 l0 107 43
35 c31 25 41 38 33 48 -14 18 -16 16 -80 -42z"/>
<path d="M17410 5755 c0 -131 2 -155 15 -155 12 0 15 16 15 85 0 47 4 85 9 85
5 0 33 -16 62 -35 35 -24 56 -32 62 -26 14 14 -6 36 -60 68 -24 14 -50 22 -59
19 -14 -5 -16 2 -12 54 4 53 2 60 -14 60 -17 0 -18 -12 -18 -155z"/>
<path d="M18317 5896 c-8 -19 -136 -114 -174 -128 -36 -13 -42 -25 -16 -35 9
-4 37 5 65 21 l48 27 0 -90 c0 -74 3 -91 15 -91 12 0 15 18 15 104 l0 105 45
37 c36 29 43 39 34 50 -14 18 -25 18 -32 0z"/>
<path d="M18726 5901 c-3 -4 3 -16 13 -25 22 -20 40 -4 21 19 -14 17 -26 19
-34 6z"/>
<path d="M15780 5885 c0 -12 17 -15 95 -15 78 0 95 3 95 15 0 12 -17 15 -95
15 -78 0 -95 -3 -95 -15z"/>
<path d="M17058 5892 c-78 -2 -98 -6 -98 -17 0 -12 16 -15 80 -15 92 0 96 -5
52 -66 -38 -51 -97 -103 -140 -121 -32 -13 -33 -16 -19 -30 14 -14 19 -13 59
10 24 14 54 37 67 51 30 31 47 24 92 -39 29 -41 34 -44 48 -30 14 13 10 21
-37 68 l-53 53 28 50 c15 27 32 52 37 56 7 5 6 12 -4 20 -11 9 -44 12 -112 10z"/>
<path d="M17760 5885 c0 -12 17 -15 90 -15 73 0 90 3 90 15 0 12 -17 15 -90
15 -73 0 -90 -3 -90 -15z"/>
<path d="M17526 5881 c-8 -12 31 -44 44 -36 8 5 6 13 -6 26 -19 21 -30 24 -38
10z"/>
<path d="M16000 5865 c0 -19 36 -39 45 -24 4 6 -1 17 -11 24 -24 18 -34 19
-34 0z"/>
<path d="M16196 5872 c-3 -3 -6 -16 -6 -28 0 -33 -37 -127 -62 -159 -17 -22
-19 -29 -7 -36 22 -14 26 -11 49 28 16 27 70 172 70 188 0 6 -39 12 -44 7z"/>
<path d="M18550 5827 c-10 -50 -38 -116 -62 -149 -14 -20 2 -45 21 -33 21 13
65 115 85 196 4 21 2 28 -14 32 -16 4 -21 -3 -30 -46z"/>
<path d="M16315 5861 c-3 -5 8 -31 24 -57 17 -26 38 -69 46 -95 17 -50 21 -54
42 -41 14 9 -21 101 -61 163 -26 39 -40 47 -51 30z"/>
<path d="M18683 5864 c-8 -4 1 -29 27 -77 21 -40 41 -84 44 -99 6 -27 29 -37
41 -19 10 18 -77 203 -95 200 -3 0 -10 -3 -17 -5z"/>
<path d="M17838 5813 c-96 -3 -118 -6 -118 -18 0 -12 20 -15 110 -15 l110 0
-19 -37 c-25 -49 -66 -88 -114 -108 -31 -13 -36 -19 -27 -30 28 -34 129 41
178 133 24 45 29 61 20 70 -7 7 -14 11 -17 10 -4 -1 -59 -4 -123 -5z"/>
<path d="M15730 5785 c0 -12 14 -15 66 -15 l67 0 -6 -42 c-6 -41 -42 -88 -78
-100 -16 -5 -3 -28 18 -28 8 0 32 17 53 38 29 29 40 49 45 85 l7 47 64 0 c50
0 64 3 64 15 0 13 -23 15 -150 15 -127 0 -150 -2 -150 -15z"/>
<path d="M4295 8764 c-95 -39 -264 -91 -377 -114 -56 -12 -104 -23 -106 -24
-1 -2 37 -11 85 -20 116 -23 267 -67 378 -111 49 -19 93 -35 97 -35 5 0 8 25
8 55 l0 55 180 0 180 0 0 -55 c0 -30 3 -55 8 -55 4 0 48 16 97 35 101 40 297
98 394 116 l64 12 -149 37 c-139 35 -267 76 -358 114 -21 9 -42 16 -47 16 -5
0 -9 -25 -9 -55 l0 -55 -180 0 -180 0 0 55 c0 64 -1 64 -85 29z"/>
<path d="M5075 6685 c-5 -2 -22 -6 -38 -9 -44 -10 -103 -70 -116 -118 -9 -31
-11 -150 -9 -413 3 -366 3 -370 26 -407 13 -20 40 -47 60 -60 l37 -23 1670 -3
c919 -2 1689 0 1713 3 50 7 108 53 128 102 11 25 14 116 14 413 0 359 -1 383
-20 419 -26 52 -60 77 -121 90 -35 8 -557 11 -1692 10 -903 0 -1646 -2 -1652
-4z m3386 -58 c68 -45 69 -50 69 -456 0 -343 -1 -367 -20 -406 -40 -82 131
-75 -1770 -75 -1868 0 -1729 -5 -1770 63 -19 30 -20 53 -20 415 0 423 0 424
63 462 31 20 63 20 1723 20 l1691 0 34 -23z"/>
<path d="M5549 6312 c-37 -76 -39 -84 -22 -89 7 -3 18 7 24 21 12 25 39 36 39
16 0 -20 -31 -84 -56 -118 -19 -24 -23 -37 -16 -44 8 -8 17 -4 31 13 26 30 71
122 71 143 0 9 6 16 14 16 30 0 -20 -142 -68 -194 -21 -21 -25 -31 -16 -40 25
-24 120 127 120 192 0 9 5 24 10 32 12 18 13 -92 2 -155 -6 -34 -11 -40 -35
-43 -16 -2 -27 -8 -24 -15 4 -15 47 -20 65 -9 20 13 31 77 32 175 l0 87 -70 0
-71 0 16 30 c18 36 18 37 1 43 -10 4 -24 -14 -47 -61z"/>
<path d="M5450 6351 c0 -14 -5 -18 -19 -14 -16 4 -22 -5 -35 -50 -20 -67 -20
-77 -2 -77 8 0 17 11 20 25 11 42 36 31 36 -15 0 -36 -3 -41 -36 -55 -26 -11
-34 -19 -30 -31 3 -8 6 -18 6 -20 0 -3 10 2 22 10 34 24 38 20 38 -39 0 -42 3
-55 15 -55 12 0 15 14 15 65 0 54 3 66 20 75 11 6 20 17 20 24 0 9 -7 12 -20
9 -17 -5 -20 0 -20 26 0 24 4 31 20 31 11 0 20 7 20 15 0 9 -9 15 -21 15 -19
0 -21 5 -17 40 3 33 0 40 -14 40 -11 0 -18 -7 -18 -19z m-4 -58 c-10 -10 -19
5 -10 18 6 11 8 11 12 0 2 -7 1 -15 -2 -18z"/>
<path d="M7377 6330 c-18 -27 -23 -41 -15 -46 6 -4 16 0 23 9 16 22 27 21 43
-3 7 -11 17 -20 23 -20 6 0 9 9 6 20 -4 17 0 20 23 20 16 0 32 -4 35 -10 3 -5
1 -10 -4 -10 -6 0 -11 -7 -11 -15 0 -12 -15 -15 -75 -15 l-75 0 0 -40 c0 -33
3 -40 20 -40 16 0 20 7 20 30 l0 30 129 0 130 0 3 -27 c5 -43 32 -36 36 10 l3
37 -75 0 c-70 0 -76 2 -76 20 0 31 30 37 50 10 18 -24 46 -19 36 6 -4 10 4 14
29 14 19 0 35 5 35 10 0 6 -25 10 -56 10 -38 0 -53 3 -48 11 3 6 0 15 -7 20
-9 5 -22 -2 -41 -24 -15 -18 -27 -26 -28 -19 0 8 -16 12 -46 12 -38 0 -44 3
-35 13 6 8 8 17 4 20 -14 15 -32 5 -56 -33z"/>
<path d="M5770 6335 c0 -9 9 -15 25 -15 23 0 25 -4 25 -40 0 -36 -2 -40 -25
-40 -16 0 -25 -6 -25 -15 0 -9 9 -15 25 -15 23 0 25 -4 25 -46 0 -41 -3 -46
-31 -56 -20 -7 -28 -15 -25 -25 3 -8 6 -16 6 -18 0 -2 32 10 70 27 39 17 70
37 70 44 0 17 -14 18 -41 4 -17 -10 -19 -7 -19 30 0 36 2 40 25 40 16 0 25 6
25 15 0 9 -9 15 -25 15 -22 0 -25 4 -25 40 0 36 3 40 25 40 16 0 25 6 25 15 0
12 -14 15 -65 15 -51 0 -65 -3 -65 -15z"/>
<path d="M5920 6270 l0 -80 40 0 c33 0 40 -3 40 -20 0 -16 -7 -20 -35 -20 -24
0 -35 -5 -35 -15 0 -10 11 -15 35 -15 32 0 35 -2 35 -30 0 -30 -1 -30 -55 -30
-42 0 -55 -3 -55 -15 0 -12 19 -15 115 -15 96 0 115 3 115 15 0 11 -12 15 -45
15 -43 0 -45 1 -45 30 0 28 3 30 35 30 24 0 35 5 35 15 0 10 -11 15 -35 15
-28 0 -35 4 -35 20 0 16 7 20 35 20 l35 0 0 80 0 80 -90 0 -90 0 0 -80z m80
35 c0 -20 -5 -25 -25 -25 -20 0 -25 5 -25 25 0 20 5 25 25 25 20 0 25 -5 25
-25z m70 0 c0 -18 -5 -25 -20 -25 -15 0 -20 7 -20 25 0 18 5 25 20 25 15 0 20
-7 20 -25z m-70 -70 c0 -20 -5 -25 -25 -25 -20 0 -25 5 -25 25 0 20 5 25 25
25 20 0 25 -5 25 -25z m70 0 c0 -18 -5 -25 -20 -25 -15 0 -20 7 -20 25 0 18 5
25 20 25 15 0 20 -7 20 -25z"/>
<path d="M7740 6335 c0 -9 9 -15 25 -15 23 0 25 -4 25 -40 0 -36 -2 -40 -25
-40 -16 0 -25 -6 -25 -15 0 -9 9 -15 25 -15 23 0 25 -4 25 -46 0 -41 -3 -46
-31 -56 -20 -7 -28 -15 -25 -25 3 -8 6 -16 6 -18 0 -2 32 10 70 27 39 17 70
37 70 44 0 17 -14 18 -41 4 -17 -10 -19 -7 -19 30 0 36 2 40 25 40 16 0 25 6
25 15 0 9 -9 15 -25 15 -22 0 -25 4 -25 40 0 36 3 40 25 40 16 0 25 6 25 15 0
12 -14 15 -65 15 -51 0 -65 -3 -65 -15z"/>
<path d="M7890 6270 l0 -80 40 0 c33 0 40 -3 40 -20 0 -16 -7 -20 -35 -20 -24
0 -35 -5 -35 -15 0 -10 11 -15 35 -15 32 0 35 -2 35 -30 0 -30 -1 -30 -55 -30
-42 0 -55 -3 -55 -15 0 -12 19 -15 115 -15 96 0 115 3 115 15 0 11 -12 15 -45
15 -43 0 -45 1 -45 30 0 28 3 30 35 30 24 0 35 5 35 15 0 10 -11 15 -35 15
-28 0 -35 4 -35 20 0 16 7 20 35 20 l35 0 0 80 0 80 -90 0 -90 0 0 -80z m80
35 c0 -20 -5 -25 -25 -25 -20 0 -25 5 -25 25 0 20 5 25 25 25 20 0 25 -5 25
-25z m70 0 c0 -18 -5 -25 -20 -25 -15 0 -20 7 -20 25 0 18 5 25 20 25 15 0 20
-7 20 -25z m-70 -70 c0 -20 -5 -25 -25 -25 -20 0 -25 5 -25 25 0 20 5 25 25
25 20 0 25 -5 25 -25z m70 0 c0 -18 -5 -25 -20 -25 -15 0 -20 7 -20 25 0 18 5
25 20 25 15 0 20 -7 20 -25z"/>
<path d="M6400 6328 c0 -7 -9 -32 -20 -56 l-20 -44 -29 21 c-33 24 -48 26 -54
9 -2 -7 11 -23 30 -36 27 -19 31 -26 23 -41 -10 -20 -48 -54 -90 -83 -20 -13
-22 -19 -13 -29 10 -10 21 -7 53 16 23 16 53 43 66 59 l25 31 23 -29 c13 -16
29 -25 35 -22 17 11 13 28 -14 56 l-25 27 26 57 c22 48 24 60 13 67 -20 12
-29 11 -29 -3z"/>
<path d="M7030 6246 c0 -79 3 -96 15 -96 12 0 15 16 15 85 0 47 0 88 1 93 0 4
-7 8 -15 10 -14 3 -16 -11 -16 -92z"/>
<path d="M7188 6246 c-3 -104 -16 -133 -76 -171 -17 -11 -30 -24 -28 -30 6
-22 34 -14 74 20 49 43 60 76 64 193 3 71 1 82 -13 82 -15 0 -18 -14 -21 -94z"/>
<path d="M6620 6315 c0 -11 12 -15 45 -15 l45 0 0 -40 0 -40 -65 0 c-51 0 -65
-3 -65 -15 0 -12 14 -15 65 -15 l64 0 3 -62 3 -63 73 -3 c58 -2 72 0 72 12 0
11 -14 16 -57 18 l-58 3 -3 48 -3 47 70 0 c56 0 71 3 71 15 0 12 -14 15 -70
15 l-70 0 0 40 0 40 55 0 c42 0 55 3 55 15 0 12 -19 15 -115 15 -96 0 -115 -3
-115 -15z"/>
<path d="M7410 6128 l0 -93 115 0 115 0 0 43 0 42 -95 0 c-57 0 -95 4 -95 10
0 6 35 10 85 10 l85 0 0 40 0 40 -105 0 -105 0 0 -92z m170 52 c0 -18 -7 -20
-65 -20 -58 0 -65 2 -65 20 0 18 7 20 65 20 58 0 65 -2 65 -20z m20 -100 c0
-18 -7 -20 -75 -20 -68 0 -75 2 -75 20 0 18 7 20 75 20 68 0 75 -2 75 -20z"/>
<path d="M255 5396 c-39 -17 -70 -52 -90 -98 -13 -32 -15 -117 -15 -625 0
-360 4 -602 10 -624 14 -50 72 -105 125 -118 31 -8 528 -11 1707 -11 1595 0
1665 1 1703 19 46 21 79 54 94 94 7 18 11 141 11 333 0 167 3 304 8 304 4 0
57 -27 117 -61 116 -64 238 -146 318 -212 53 -44 61 -42 73 21 3 18 10 35 15
38 6 3 4637 -1336 5087 -1472 l82 -25 0 -217 c0 -232 6 -274 47 -322 58 -69
-6 -65 961 -68 868 -3 872 -3 872 -23 0 -65 -76 -331 -138 -487 l-22 -52 60 0
60 0 0 -330 0 -330 -5055 0 -5055 0 0 -420 0 -420 10210 0 10210 0 0 420 0
420 -5100 0 -5100 0 0 330 0 330 56 0 c50 0 55 2 49 17 -60 139 -133 381 -150
496 l-7 47 793 0 c515 0 807 4 831 10 48 14 97 55 114 97 11 24 14 92 14 270
l0 238 63 36 c34 20 770 444 1635 942 866 499 1574 907 1576 907 1 0 12 -20
26 -45 14 -25 27 -44 31 -43 3 2 40 44 82 93 95 113 161 182 257 268 l75 67
-54 -21 c-78 -29 -260 -74 -376 -93 -55 -9 -112 -19 -127 -22 l-28 -6 26 -45
c23 -38 25 -46 13 -57 -8 -7 -689 -401 -1514 -876 -825 -474 -1542 -886 -1592
-916 l-93 -53 0 305 c0 284 -1 307 -20 344 -11 21 -34 49 -52 62 l-33 23 -797
3 -798 2 0 155 0 155 56 0 c50 0 55 2 49 18 -70 170 -155 454 -155 519 0 46
-10 18 -36 -94 -23 -106 -78 -280 -123 -390 l-21 -53 60 0 60 0 0 -155 0 -155
-855 0 c-922 0 -883 2 -931 -52 -48 -52 -49 -57 -54 -389 l-5 -317 -2565 746
c-1411 410 -2566 746 -2567 747 -2 1 4 23 13 49 9 26 14 49 12 52 -3 2 -77 0
-165 -6 -107 -7 -200 -7 -279 0 -66 5 -125 10 -131 10 -10 0 -13 66 -13 297 0
281 -1 299 -21 340 -14 29 -35 52 -63 68 l-43 25 -1694 0 c-1389 -1 -1699 -3
-1724 -14z m3434 -34 c19 -9 44 -30 55 -45 21 -28 21 -40 24 -625 2 -389 -1
-609 -7 -632 -6 -20 -24 -49 -41 -65 l-31 -30 -1700 -3 c-1879 -2 -1738 -7
-1779 61 -19 31 -20 55 -20 647 0 583 1 617 19 646 42 69 -96 64 1766 64 1580
0 1682 -1 1714 -18z m9362 -1575 c71 -47 69 -24 69 -687 0 -663 2 -640 -69
-687 l-34 -23 -1689 0 c-1866 0 -1727 -5 -1768 63 -19 31 -20 55 -20 647 0
583 1 617 19 646 42 69 -97 64 1772 64 l1686 0 34 -23z m8569 -3077 l0 -390
-10180 0 -10180 0 0 390 0 390 10180 0 10180 0 0 -390z"/>
<path d="M1316 5112 c-7 -12 22 -45 33 -37 8 4 8 12 1 26 -11 20 -25 25 -34
11z"/>
<path d="M1265 5100 c-7 -12 11 -40 26 -40 14 0 10 26 -5 39 -10 9 -16 9 -21
1z"/>
<path d="M2880 5010 c0 -85 -1 -90 -21 -90 -28 0 -19 -24 11 -28 39 -6 50 22
50 120 0 81 -2 88 -20 88 -19 0 -20 -7 -20 -90z"/>
<path d="M2340 5064 c-6 -14 -31 -47 -56 -74 -40 -43 -44 -51 -29 -56 13 -5
29 4 57 34 36 39 42 42 93 42 30 0 55 -2 55 -4 0 -1 -5 -18 -12 -37 -17 -52
-63 -111 -113 -144 -49 -33 -53 -40 -29 -49 37 -14 122 71 170 171 20 40 32
77 29 83 -3 5 -35 10 -71 10 -63 0 -74 6 -53 27 7 7 4 12 -11 16 -16 4 -23 -1
-30 -19z"/>
<path d="M2610 5080 c0 -5 7 -10 15 -10 10 0 15 -10 15 -30 0 -25 -4 -30 -25
-30 -14 0 -25 -4 -25 -10 0 -5 12 -10 26 -10 23 0 25 -3 20 -27 -4 -16 -17
-36 -28 -46 -18 -15 -20 -20 -7 -28 19 -12 69 42 69 76 0 16 6 25 15 25 11 0
15 -12 15 -50 0 -43 3 -50 20 -50 11 0 20 -7 20 -15 0 -11 -12 -15 -50 -15
-27 0 -50 -4 -50 -10 0 -5 23 -10 50 -10 49 0 50 -1 50 -30 l0 -30 -75 0 c-43
0 -75 -4 -75 -10 0 -6 65 -10 175 -10 110 0 175 4 175 10 0 6 -33 10 -80 10
l-80 0 0 30 c0 30 1 30 55 30 30 0 55 5 55 10 0 6 -25 10 -56 10 l-56 0 4 30
c4 26 1 30 -19 30 -20 0 -23 5 -23 35 0 31 3 35 25 35 14 0 25 5 25 10 0 6
-11 10 -25 10 -21 0 -25 5 -25 30 0 20 5 30 15 30 8 0 15 5 15 10 0 6 -33 10
-80 10 -47 0 -80 -4 -80 -10z m90 -40 c0 -16 -4 -30 -10 -30 -5 0 -10 14 -10
30 0 17 5 30 10 30 6 0 10 -13 10 -30z"/>
<path d="M2812 5013 c2 -61 6 -78 18 -78 12 0 16 17 18 78 3 72 2 77 -18 77
-20 0 -21 -5 -18 -77z"/>
<path d="M1173 5042 c-91 -2 -113 -5 -113 -17 0 -12 19 -15 105 -15 l105 0 -6
-27 c-18 -74 -67 -134 -137 -170 -34 -17 -37 -21 -23 -32 14 -12 23 -9 63 15
62 39 97 85 126 165 31 84 29 85 -120 81z"/>
<path d="M1450 4926 c0 -126 9 -158 35 -123 10 14 30 17 100 17 70 0 90 -3
100 -17 26 -35 35 -3 35 123 l0 124 -135 0 -135 0 0 -124z m230 9 l0 -85 -95
0 -95 0 0 85 0 85 95 0 95 0 0 -85z"/>
<path d="M1940 4958 c1 -25 25 -57 37 -50 9 6 9 13 0 32 -14 26 -37 39 -37 18z"/>
<path d="M2047 4929 c-7 -55 -49 -114 -98 -140 -28 -14 -38 -24 -31 -31 28
-28 111 50 146 139 20 52 22 63 9 67 -8 3 -16 6 -18 6 -1 0 -5 -18 -8 -41z"/>
<path d="M1868 4945 c-9 -9 16 -55 30 -55 15 0 15 15 2 41 -11 19 -22 24 -32
14z"/>
<path d="M727 4617 c-6 -16 29 -41 44 -32 12 8 4 22 -21 35 -13 7 -19 6 -23
-3z"/>
<path d="M1115 4619 c-7 -10 21 -38 38 -39 11 0 8 25 -5 38 -15 15 -25 15 -33
1z"/>
<path d="M3475 4619 c-7 -10 21 -38 38 -39 11 0 8 25 -5 38 -15 15 -25 15 -33
1z"/>
<path d="M2285 4600 c-3 -5 3 -20 14 -31 18 -20 21 -20 27 -5 10 27 -26 60
-41 36z"/>
<path d="M1076 4591 c-3 -4 3 -16 13 -25 22 -20 40 -4 21 19 -14 17 -26 19
-34 6z"/>
<path d="M1408 4545 c-32 -30 -80 -64 -108 -77 -27 -13 -50 -26 -50 -31 0 -20
34 -17 76 7 26 14 48 26 50 26 2 0 4 -40 4 -90 0 -73 3 -90 15 -90 12 0 15 18
15 104 l0 104 45 40 c33 29 41 42 33 50 -17 17 -17 17 -80 -43z"/>
<path d="M2120 4445 c0 -148 1 -155 20 -155 18 0 20 7 20 85 l0 86 33 -17 c17
-9 42 -25 54 -36 22 -20 43 -17 43 5 0 14 -98 77 -118 77 -8 0 -12 19 -12 55
0 48 -2 55 -20 55 -19 0 -20 -7 -20 -155z"/>
<path d="M2990 4548 c-30 -27 -81 -61 -112 -76 -31 -15 -57 -31 -57 -35 -2
-21 37 -18 81 6 l48 27 0 -90 c0 -73 3 -90 15 -90 12 0 15 18 15 102 l0 102
46 41 c38 33 44 42 33 52 -11 8 -26 0 -69 -39z"/>
<path d="M3436 4591 c-3 -4 3 -16 13 -25 22 -20 40 -4 21 19 -14 17 -26 19
-34 6z"/>
<path d="M490 4575 c0 -12 18 -15 100 -15 82 0 100 3 100 15 0 12 -18 15 -100
15 -82 0 -100 -3 -100 -15z"/>
<path d="M1773 4582 c-74 -2 -93 -6 -93 -17 0 -12 16 -15 80 -15 l80 0 -20
-40 c-28 -54 -89 -114 -145 -143 -40 -20 -44 -25 -32 -36 19 -15 60 4 118 56
39 35 40 36 61 17 11 -11 33 -36 48 -56 23 -32 30 -36 40 -23 14 17 -12 59
-60 97 l-30 23 36 59 c45 76 39 82 -83 78z"/>
<path d="M2470 4575 c0 -12 17 -15 90 -15 73 0 90 3 90 15 0 12 -17 15 -90 15
-73 0 -90 -3 -90 -15z"/>
<path d="M2236 4571 c-8 -12 31 -44 44 -36 8 5 6 13 -6 26 -19 21 -30 24 -38
10z"/>
<path d="M715 4559 c-8 -11 25 -40 37 -33 14 9 9 23 -11 34 -14 7 -22 7 -26
-1z"/>
<path d="M900 4517 c-10 -50 -38 -116 -62 -149 -14 -20 2 -45 21 -33 21 13 65
115 85 196 4 21 2 28 -14 32 -16 4 -21 -3 -30 -46z"/>
<path d="M3260 4517 c-10 -50 -38 -116 -62 -149 -14 -20 2 -45 21 -33 21 13
65 115 85 196 4 21 2 28 -14 32 -16 4 -21 -3 -30 -46z"/>
<path d="M1033 4554 c-8 -4 1 -29 27 -77 21 -40 41 -84 44 -99 6 -27 29 -37
41 -19 10 18 -77 203 -95 200 -3 0 -10 -3 -17 -5z"/>
<path d="M3393 4554 c-8 -4 1 -29 27 -77 21 -40 41 -84 44 -99 6 -27 29 -37
41 -19 10 18 -77 203 -95 200 -3 0 -10 -3 -17 -5z"/>
<path d="M2548 4503 c-96 -3 -118 -6 -118 -18 0 -12 20 -15 110 -15 l110 0
-19 -37 c-25 -49 -66 -88 -114 -108 -31 -13 -36 -19 -27 -30 28 -34 129 41
178 133 24 45 29 61 20 70 -7 7 -14 11 -17 10 -4 -1 -59 -4 -123 -5z"/>
<path d="M440 4475 c0 -12 15 -15 71 -15 l71 0 -7 -32 c-9 -45 -31 -77 -66
-96 -30 -18 -33 -35 -6 -40 41 -8 107 79 107 141 0 27 1 27 65 27 51 0 65 3
65 15 0 13 -23 15 -150 15 -127 0 -150 -2 -150 -15z"/>
<path d="M10276 3533 c-3 -4 -6 -15 -6 -25 0 -15 -8 -18 -51 -18 l-50 0 3 -37
c4 -46 31 -53 36 -10 3 27 4 27 78 27 72 0 74 -1 74 -25 0 -18 5 -25 20 -25
16 0 20 7 20 35 0 35 0 35 -45 35 -37 0 -45 3 -45 19 0 19 -23 35 -34 24z"/>
<path d="M11796 3528 c-3 -7 -9 -35 -16 -63 -6 -27 -20 -65 -31 -83 -10 -18
-19 -37 -19 -43 0 -19 26 -8 42 19 l17 27 1 -27 c0 -15 4 -38 10 -52 8 -23 5
-30 -31 -65 -32 -30 -37 -40 -25 -44 10 -4 29 5 49 23 l34 29 20 -20 c26 -26
80 -38 169 -39 53 0 73 4 77 14 9 22 -1 25 -58 19 -70 -7 -139 4 -167 26 l-22
19 22 63 c12 35 25 83 28 107 l7 42 -43 0 c-41 0 -42 0 -35 30 5 24 3 30 -10
30 -8 0 -17 -6 -19 -12z m64 -99 c0 -29 -21 -99 -30 -99 -8 0 -20 59 -20 98 0
17 6 22 25 22 19 0 25 -5 25 -21z"/>
<path d="M10470 3370 l0 -160 -26 0 c-34 0 -26 -24 10 -28 52 -6 56 5 56 184
0 157 -1 164 -20 164 -19 0 -20 -7 -20 -160z"/>
<path d="M10966 3521 c-7 -11 46 -81 58 -77 20 5 16 24 -9 55 -27 32 -40 38
-49 22z"/>
<path d="M11080 3505 c0 -11 12 -15 45 -15 38 0 45 -3 45 -20 0 -35 -42 -131
-73 -166 -22 -26 -27 -38 -19 -46 17 -17 46 14 78 78 l26 53 29 -58 c34 -68
55 -89 70 -74 7 7 0 25 -25 57 -37 49 -51 94 -49 164 l1 42 -64 0 c-50 0 -64
-3 -64 -15z"/>
<path d="M10410 3390 c0 -113 1 -120 20 -120 19 0 20 7 20 120 0 113 -1 120
-20 120 -19 0 -20 -7 -20 -120z"/>
<path d="M10636 3473 c-14 -87 -4 -197 17 -190 14 4 58 117 51 128 -10 16 -22
9 -33 -18 -9 -23 -10 -14 -5 45 4 58 3 72 -9 72 -9 0 -17 -15 -21 -37z"/>
<path d="M10805 3442 c9 -82 -6 -144 -45 -194 -26 -32 -27 -37 -12 -43 12 -4
24 3 39 22 36 45 53 109 53 200 0 77 -1 83 -21 83 -19 0 -20 -4 -14 -68z"/>
<path d="M11483 3495 c-49 -8 -61 -13 -54 -24 6 -10 21 -12 50 -8 23 3 41 3
41 1 0 -3 -9 -23 -20 -45 -15 -29 -29 -41 -50 -45 -56 -12 -98 -73 -80 -119 6
-17 17 -25 33 -25 28 0 47 19 76 78 23 44 23 45 94 25 28 -7 20 -33 -24 -75
-32 -31 -37 -39 -24 -44 19 -8 60 28 82 69 14 28 15 28 34 11 15 -14 22 -15
32 -5 9 10 7 16 -14 32 -24 17 -26 23 -19 59 8 42 5 50 -17 50 -8 0 -13 -13
-13 -38 l0 -38 -45 10 c-25 6 -45 14 -45 18 0 5 11 30 24 58 30 62 22 69 -61
55z m-44 -194 c-25 -46 -39 -52 -39 -18 0 27 9 40 35 55 29 15 30 8 4 -37z"/>
<path d="M11928 3426 c-3 -57 -10 -92 -22 -111 -22 -33 -14 -64 11 -44 27 23
43 75 43 144 0 58 2 65 20 65 18 0 20 -8 22 -102 l3 -103 37 -3 c32 -3 40 1
49 22 12 26 7 56 -10 56 -5 0 -11 -10 -13 -22 -2 -13 -11 -24 -20 -26 -16 -3
-18 7 -18 102 l0 106 -49 0 -48 0 -5 -84z"/>
<path d="M12130 3495 c0 -9 9 -15 25 -15 23 0 25 -4 25 -40 0 -36 -2 -40 -25
-40 -16 0 -25 -6 -25 -15 0 -9 9 -15 25 -15 23 0 25 -4 25 -46 0 -41 -3 -46
-29 -55 -22 -8 -28 -15 -24 -30 6 -23 1 -23 51 1 23 11 53 25 67 30 37 14 33
41 -5 34 -29 -6 -30 -5 -30 30 0 33 2 36 30 36 20 0 30 5 30 15 0 10 -10 15
-30 15 -28 0 -30 2 -30 40 0 38 2 40 30 40 20 0 30 5 30 15 0 12 -14 15 -70
15 -56 0 -70 -3 -70 -15z"/>
<path d="M12280 3430 l0 -80 40 0 c33 0 40 -3 40 -20 0 -16 -7 -20 -35 -20
-24 0 -35 -5 -35 -15 0 -10 11 -15 35 -15 32 0 35 -2 35 -30 0 -30 -1 -30 -55
-30 -42 0 -55 -3 -55 -15 0 -12 20 -15 120 -15 100 0 120 3 120 15 0 11 -12
15 -50 15 -49 0 -50 1 -50 30 0 28 3 30 35 30 24 0 35 5 35 15 0 10 -11 15
-35 15 -28 0 -35 4 -35 20 0 16 7 20 35 20 l35 0 0 80 0 80 -90 0 -90 0 0 -80z
m80 34 c0 -21 -4 -25 -22 -22 -15 2 -24 11 -26 26 -3 18 1 22 22 22 21 0 26
-5 26 -26z m70 1 c0 -18 -5 -25 -20 -25 -15 0 -20 7 -20 25 0 18 5 25 20 25
15 0 20 -7 20 -25z m-70 -70 c0 -20 -5 -25 -25 -25 -20 0 -25 5 -25 25 0 20 5
25 25 25 20 0 25 -5 25 -25z m70 0 c0 -18 -5 -25 -20 -25 -15 0 -20 7 -20 25
0 18 5 25 20 25 15 0 20 -7 20 -25z"/>
<path d="M10270 3445 c0 -9 -9 -15 -25 -15 -14 0 -25 -4 -25 -10 0 -5 11 -10
25 -10 16 0 25 -6 25 -15 0 -10 -10 -15 -30 -15 -16 0 -30 -4 -30 -10 0 -5 14
-10 30 -10 20 0 30 -5 30 -15 0 -11 -12 -15 -50 -15 -27 0 -50 -4 -50 -10 0
-6 45 -10 115 -10 70 0 115 4 115 10 0 6 -20 10 -45 10 -33 0 -45 4 -45 15 0
9 9 15 25 15 14 0 25 5 25 10 0 6 -11 10 -25 10 -16 0 -25 6 -25 15 0 8 9 15
20 15 11 0 20 5 20 10 0 6 -9 10 -20 10 -11 0 -20 7 -20 15 0 8 -9 15 -20 15
-11 0 -20 -7 -20 -15z"/>
<path d="M10960 3365 c0 -8 9 -15 20 -15 17 0 20 -7 20 -51 0 -40 -5 -54 -22
-69 -19 -15 -20 -20 -9 -34 12 -14 15 -14 30 6 14 17 21 19 39 9 31 -16 262
-15 262 2 0 10 -28 13 -121 12 -143 0 -149 4 -149 97 l0 58 -35 0 c-24 0 -35
-5 -35 -15z"/>
<path d="M10200 3230 c0 -43 3 -50 20 -50 11 0 20 5 20 10 0 14 83 13 97 -1
19 -19 33 0 33 47 l0 44 -85 0 -85 0 0 -50z m130 10 c0 -17 -7 -20 -45 -20
-38 0 -45 3 -45 20 0 17 7 20 45 20 38 0 45 -3 45 -20z"/>
<path d="M11178 3047 c-55 -6 -78 -13 -78 -23 0 -10 13 -14 40 -14 l40 0 0
-105 c0 -100 -1 -105 -21 -105 -20 0 -21 4 -17 75 3 67 1 75 -14 75 -16 0 -18
-10 -18 -75 0 -43 -4 -75 -10 -75 -5 0 -10 -4 -10 -10 0 -6 40 -10 100 -10 60
0 100 4 100 10 0 6 -18 10 -40 10 l-40 0 0 50 0 50 40 0 c22 0 40 5 40 10 0 6
-18 10 -40 10 l-40 0 0 50 c0 53 3 55 68 53 6 -1 12 2 12 6 0 9 -22 31 -29 30
-4 -1 -41 -6 -83 -12z"/>
<path d="M11396 3015 c-4 -24 -20 -69 -35 -100 -15 -30 -26 -57 -23 -60 12
-12 31 -4 37 16 9 28 22 13 30 -37 6 -38 4 -43 -31 -73 -27 -24 -33 -36 -25
-44 8 -8 21 -2 49 20 39 32 39 32 59 12 26 -26 80 -38 171 -39 62 0 72 2 72
18 0 15 -11 17 -94 17 -81 0 -98 3 -123 22 -15 11 -27 25 -26 30 2 4 11 33 22
63 10 30 22 74 26 98 l7 42 -42 0 c-42 0 -42 0 -36 30 4 25 2 30 -13 30 -14 0
-20 -10 -25 -45z m74 -58 c0 -7 -8 -38 -17 -68 -16 -52 -17 -53 -24 -24 -3 17
-7 47 -8 68 -1 33 2 37 24 37 14 0 25 -6 25 -13z"/>
<path d="M10582 3041 c-11 -7 -9 -17 13 -49 16 -25 32 -39 41 -35 11 4 11 9 0
31 -26 48 -40 62 -54 53z"/>
<path d="M10670 2967 c0 -40 -6 -97 -14 -127 -11 -41 -11 -57 -3 -62 20 -12
40 42 45 120 4 63 7 72 24 72 11 0 16 -4 13 -10 -3 -5 -1 -19 5 -30 9 -17 8
-20 -10 -20 -11 0 -20 -4 -20 -10 0 -5 16 -10 35 -10 24 0 35 -5 35 -15 0 -10
-11 -15 -35 -15 -19 0 -35 -4 -35 -10 0 -5 16 -10 35 -10 24 0 35 -5 35 -15 0
-11 -12 -15 -45 -15 -25 0 -45 -4 -45 -10 0 -5 20 -10 45 -10 44 0 45 -1 45
-31 l0 -32 -57 7 c-78 9 -93 25 -93 98 l0 58 -35 0 c-24 0 -35 -5 -35 -15 0
-8 9 -15 20 -15 30 0 29 -84 -2 -117 -16 -17 -19 -26 -10 -35 8 -8 16 -5 30
12 18 22 19 22 44 6 21 -14 47 -16 143 -14 89 2 119 6 123 17 3 10 -6 12 -47
6 l-51 -7 0 31 c0 29 2 31 40 31 22 0 40 5 40 10 0 6 -18 10 -40 10 -29 0 -40
4 -40 15 0 10 10 15 30 15 17 0 30 5 30 10 0 6 -13 10 -30 10 -20 0 -30 5 -30
15 0 10 11 15 35 15 19 0 35 5 35 10 0 6 -9 10 -20 10 -21 0 -27 15 -10 25 15
9 12 25 -5 25 -9 0 -21 -11 -27 -25 -10 -22 -52 -38 -46 -17 1 4 -3 17 -10 30
-13 22 -12 22 58 22 l70 0 0 35 0 35 -110 0 -110 0 0 -73z m190 38 c0 -12 -16
-15 -80 -15 -64 0 -80 3 -80 15 0 12 16 15 80 15 64 0 80 -3 80 -15z"/>
<path d="M10970 3026 c0 -10 13 -16 36 -18 l35 -3 -39 -57 c-34 -48 -38 -57
-24 -63 9 -3 18 -1 20 4 2 6 15 11 28 11 28 0 31 -26 10 -75 l-13 -30 -7 38
c-4 22 -13 37 -21 37 -18 0 -18 -14 -1 -63 13 -36 13 -38 -13 -56 -19 -15 -23
-23 -15 -31 9 -9 18 -8 36 4 23 15 28 15 54 1 41 -21 239 -22 248 0 4 13 -9
15 -87 15 -88 0 -167 13 -167 28 0 4 7 25 15 47 8 22 14 55 15 73 0 29 -3 32
-30 32 l-30 0 31 50 c17 27 28 54 24 60 -10 16 -105 13 -105 -4z"/>
<path d="M11540 2986 c0 -63 -18 -147 -35 -166 -13 -15 -13 -19 -2 -29 31 -25
67 59 67 157 0 45 3 52 20 52 18 0 20 -8 22 -102 l3 -103 38 -3 c32 -3 38 0
47 24 11 29 7 54 -9 54 -5 0 -12 -11 -15 -25 -4 -14 -13 -25 -21 -25 -12 0
-15 19 -15 105 l0 105 -50 0 -50 0 0 -44z"/>
<path d="M11740 3015 c0 -9 9 -15 25 -15 23 0 25 -4 25 -40 0 -36 -2 -40 -25
-40 -16 0 -25 -6 -25 -15 0 -9 9 -15 25 -15 23 0 25 -4 25 -46 0 -41 -3 -46
-31 -56 -20 -7 -28 -15 -25 -25 3 -8 6 -16 6 -18 0 -2 32 10 70 27 39 17 70
37 70 44 0 17 -14 18 -41 4 -17 -10 -19 -7 -19 30 0 36 2 40 25 40 16 0 25 6
25 15 0 9 -9 15 -25 15 -22 0 -25 4 -25 40 0 36 3 40 25 40 16 0 25 6 25 15 0
12 -14 15 -65 15 -51 0 -65 -3 -65 -15z"/>
<path d="M11890 2950 l0 -80 40 0 c33 0 40 -3 40 -20 0 -16 -7 -20 -35 -20
-24 0 -35 -5 -35 -15 0 -10 11 -15 35 -15 32 0 35 -2 35 -30 0 -30 -1 -30 -55
-30 -42 0 -55 -3 -55 -15 0 -12 19 -15 115 -15 96 0 115 3 115 15 0 11 -12 15
-45 15 -43 0 -45 1 -45 30 0 28 3 30 35 30 24 0 35 5 35 15 0 10 -11 15 -35
15 -28 0 -35 4 -35 20 0 16 7 20 35 20 l35 0 0 80 0 80 -90 0 -90 0 0 -80z
m80 35 c0 -20 -5 -25 -25 -25 -20 0 -25 5 -25 25 0 20 5 25 25 25 20 0 25 -5
25 -25z m70 0 c0 -18 -5 -25 -20 -25 -15 0 -20 7 -20 25 0 18 5 25 20 25 15 0
20 -7 20 -25z m-70 -70 c0 -20 -5 -25 -25 -25 -20 0 -25 5 -25 25 0 20 5 25
25 25 20 0 25 -5 25 -25z m70 0 c0 -18 -5 -25 -20 -25 -15 0 -20 7 -20 25 0
18 5 25 20 25 15 0 20 -7 20 -25z"/>
<path d="M11620 880 l0 -40 -67 0 -68 0 3 -70 c3 -61 6 -70 23 -70 16 0 19 7
19 55 l0 55 110 0 111 0 -7 -37 c-14 -79 -81 -169 -147 -197 -8 -3 -6 -10 7
-20 16 -13 22 -13 46 -1 57 29 103 102 131 204 16 60 16 66 1 77 -11 8 -36 10
-71 6 l-54 -5 6 41 c5 39 3 42 -19 42 -21 0 -24 -4 -24 -40z"/>
<path d="M11130 773 c0 -76 -3 -155 -6 -175 -6 -36 -5 -38 20 -38 l26 0 0 95
c0 52 4 95 8 95 12 0 84 -52 101 -73 10 -13 17 -15 27 -6 8 6 14 17 14 24 0
17 -54 62 -98 83 -29 14 -34 14 -42 2 -7 -10 -10 3 -10 42 0 31 5 60 10 63 16
10 1 25 -26 25 l-24 0 0 -137z"/>
<path d="M11334 899 c-10 -17 33 -56 47 -42 13 13 6 29 -21 43 -13 7 -21 7
-26 -1z"/>
<path d="M12493 883 c-139 -3 -153 -5 -153 -21 0 -17 11 -18 152 -14 172 5
165 11 89 -70 -28 -30 -32 -41 -23 -50 17 -17 34 -5 96 65 48 56 49 57 31 77
-10 11 -23 19 -29 18 -6 -1 -80 -4 -163 -5z"/>
<path d="M11282 867 c-9 -11 -7 -19 12 -36 19 -18 25 -19 34 -8 9 11 7 19 -12
36 -19 18 -25 19 -34 8z"/>
<path d="M10256 863 c-3 -3 -6 -14 -6 -23 0 -37 -32 -121 -64 -169 -34 -49
-34 -51 -15 -62 15 -7 24 -7 35 1 18 16 84 148 84 169 0 9 7 29 15 45 9 16 14
30 13 31 -10 7 -56 14 -62 8z"/>
<path d="M10399 858 c-15 -10 -13 -18 16 -72 19 -34 41 -87 50 -119 13 -44 21
-57 32 -53 8 3 19 6 25 6 15 0 0 56 -37 135 -41 90 -64 117 -86 103z"/>
<path d="M12490 798 c0 -62 -21 -112 -66 -157 -41 -40 -43 -45 -27 -57 25 -18
25 -18 60 19 38 39 68 99 77 152 4 22 9 48 12 58 4 13 -1 17 -25 17 -28 0 -31
-3 -31 -32z"/>
<path d="M11980 755 c0 -11 12 -15 45 -15 l45 0 0 -75 0 -75 -60 0 c-47 0 -60
-3 -60 -15 0 -13 22 -15 140 -15 118 0 140 2 140 15 0 12 -13 15 -60 15 l-60
0 0 75 0 75 45 0 c33 0 45 4 45 15 0 12 -19 15 -110 15 -91 0 -110 -3 -110
-15z"/>
<path d="M10630 730 l0 -25 160 0 160 0 0 25 0 25 -160 0 -160 0 0 -25z"/>
</g>
</svg>
